<?xml version="1.0" encoding="utf-8" standalone="no"?>
<!DOCTYPE svg PUBLIC "-//W3C//DTD SVG 1.1//EN"
  "http://www.w3.org/Graphics/SVG/1.1/DTD/svg11.dtd">
<svg xmlns:xlink="http://www.w3.org/1999/xlink" width="800.39952pt" height="404.39952pt" viewBox="0 0 800.39952 404.39952" xmlns="http://www.w3.org/2000/svg" version="1.1">
 <metadata>
  <rdf:RDF xmlns:dc="http://purl.org/dc/elements/1.1/" xmlns:cc="http://creativecommons.org/ns#" xmlns:rdf="http://www.w3.org/1999/02/22-rdf-syntax-ns#">
   <cc:Work>
    <dc:type rdf:resource="http://purl.org/dc/dcmitype/StillImage"/>
    <dc:date>2026-05-02T11:14:23.639787</dc:date>
    <dc:format>image/svg+xml</dc:format>
    <dc:creator>
     <cc:Agent>
      <dc:title>Matplotlib v3.10.7, https://matplotlib.org/</dc:title>
     </cc:Agent>
    </dc:creator>
   </cc:Work>
  </rdf:RDF>
 </metadata>
 <defs>
  <style type="text/css">*{stroke-linejoin: round; stroke-linecap: butt}</style>
 </defs>
 <g id="figure_1">
  <g id="patch_1">
   <path d="M 0 404.39952 
L 800.39952 404.39952 
L 800.39952 -0 
L 0 -0 
z
" style="fill: #ffffff"/>
  </g>
  <g id="axes_1">
   <g id="patch_2">
    <path d="M 61.707813 366.84327 
L 793.19952 366.84327 
L 793.19952 22.370625 
L 61.707813 22.370625 
z
" style="fill: #ffffff"/>
   </g>
   <g id="matplotlib.axis_1">
    <g id="xtick_1">
     <g id="line2d_1">
      <path d="M 94.957436 366.84327 
L 94.957436 22.370625 
" clip-path="url(#pda3f76eb28)" style="fill: none; stroke: #b0b0b0; stroke-opacity: 0.35; stroke-width: 0.8; stroke-linecap: square"/>
     </g>
     <g id="line2d_2">
      <defs>
       <path id="mc9516bb0ea" d="M 0 0 
L 0 3.5 
" style="stroke: #000000; stroke-width: 0.8"/>
      </defs>
      <g>
       <use xlink:href="#mc9516bb0ea" x="94.957436" y="366.84327" style="stroke: #000000; stroke-width: 0.8"/>
      </g>
     </g>
     <g id="text_1">
      <text style="font-size: 10px; font-family: 'DejaVu Sans', 'Bitstream Vera Sans', 'Computer Modern Sans Serif', 'Lucida Grande', 'Verdana', 'Geneva', 'Lucid', 'Arial', 'Helvetica', 'Avant Garde', sans-serif; text-anchor: middle" x="94.957436" y="381.441707" transform="rotate(-0 94.957436 381.441707)">7000</text>
     </g>
    </g>
    <g id="xtick_2">
     <g id="line2d_3">
      <path d="M 205.789512 366.84327 
L 205.789512 22.370625 
" clip-path="url(#pda3f76eb28)" style="fill: none; stroke: #b0b0b0; stroke-opacity: 0.35; stroke-width: 0.8; stroke-linecap: square"/>
     </g>
     <g id="line2d_4">
      <g>
       <use xlink:href="#mc9516bb0ea" x="205.789512" y="366.84327" style="stroke: #000000; stroke-width: 0.8"/>
      </g>
     </g>
     <g id="text_2">
      <text style="font-size: 10px; font-family: 'DejaVu Sans', 'Bitstream Vera Sans', 'Computer Modern Sans Serif', 'Lucida Grande', 'Verdana', 'Geneva', 'Lucid', 'Arial', 'Helvetica', 'Avant Garde', sans-serif; text-anchor: middle" x="205.789512" y="381.441707" transform="rotate(-0 205.789512 381.441707)">7500</text>
     </g>
    </g>
    <g id="xtick_3">
     <g id="line2d_5">
      <path d="M 316.621589 366.84327 
L 316.621589 22.370625 
" clip-path="url(#pda3f76eb28)" style="fill: none; stroke: #b0b0b0; stroke-opacity: 0.35; stroke-width: 0.8; stroke-linecap: square"/>
     </g>
     <g id="line2d_6">
      <g>
       <use xlink:href="#mc9516bb0ea" x="316.621589" y="366.84327" style="stroke: #000000; stroke-width: 0.8"/>
      </g>
     </g>
     <g id="text_3">
      <text style="font-size: 10px; font-family: 'DejaVu Sans', 'Bitstream Vera Sans', 'Computer Modern Sans Serif', 'Lucida Grande', 'Verdana', 'Geneva', 'Lucid', 'Arial', 'Helvetica', 'Avant Garde', sans-serif; text-anchor: middle" x="316.621589" y="381.441707" transform="rotate(-0 316.621589 381.441707)">8000</text>
     </g>
    </g>
    <g id="xtick_4">
     <g id="line2d_7">
      <path d="M 427.453666 366.84327 
L 427.453666 22.370625 
" clip-path="url(#pda3f76eb28)" style="fill: none; stroke: #b0b0b0; stroke-opacity: 0.35; stroke-width: 0.8; stroke-linecap: square"/>
     </g>
     <g id="line2d_8">
      <g>
       <use xlink:href="#mc9516bb0ea" x="427.453666" y="366.84327" style="stroke: #000000; stroke-width: 0.8"/>
      </g>
     </g>
     <g id="text_4">
      <text style="font-size: 10px; font-family: 'DejaVu Sans', 'Bitstream Vera Sans', 'Computer Modern Sans Serif', 'Lucida Grande', 'Verdana', 'Geneva', 'Lucid', 'Arial', 'Helvetica', 'Avant Garde', sans-serif; text-anchor: middle" x="427.453666" y="381.441707" transform="rotate(-0 427.453666 381.441707)">8500</text>
     </g>
    </g>
    <g id="xtick_5">
     <g id="line2d_9">
      <path d="M 538.285743 366.84327 
L 538.285743 22.370625 
" clip-path="url(#pda3f76eb28)" style="fill: none; stroke: #b0b0b0; stroke-opacity: 0.35; stroke-width: 0.8; stroke-linecap: square"/>
     </g>
     <g id="line2d_10">
      <g>
       <use xlink:href="#mc9516bb0ea" x="538.285743" y="366.84327" style="stroke: #000000; stroke-width: 0.8"/>
      </g>
     </g>
     <g id="text_5">
      <text style="font-size: 10px; font-family: 'DejaVu Sans', 'Bitstream Vera Sans', 'Computer Modern Sans Serif', 'Lucida Grande', 'Verdana', 'Geneva', 'Lucid', 'Arial', 'Helvetica', 'Avant Garde', sans-serif; text-anchor: middle" x="538.285743" y="381.441707" transform="rotate(-0 538.285743 381.441707)">9000</text>
     </g>
    </g>
    <g id="xtick_6">
     <g id="line2d_11">
      <path d="M 649.11782 366.84327 
L 649.11782 22.370625 
" clip-path="url(#pda3f76eb28)" style="fill: none; stroke: #b0b0b0; stroke-opacity: 0.35; stroke-width: 0.8; stroke-linecap: square"/>
     </g>
     <g id="line2d_12">
      <g>
       <use xlink:href="#mc9516bb0ea" x="649.11782" y="366.84327" style="stroke: #000000; stroke-width: 0.8"/>
      </g>
     </g>
     <g id="text_6">
      <text style="font-size: 10px; font-family: 'DejaVu Sans', 'Bitstream Vera Sans', 'Computer Modern Sans Serif', 'Lucida Grande', 'Verdana', 'Geneva', 'Lucid', 'Arial', 'Helvetica', 'Avant Garde', sans-serif; text-anchor: middle" x="649.11782" y="381.441707" transform="rotate(-0 649.11782 381.441707)">9500</text>
     </g>
    </g>
    <g id="xtick_7">
     <g id="line2d_13">
      <path d="M 759.949897 366.84327 
L 759.949897 22.370625 
" clip-path="url(#pda3f76eb28)" style="fill: none; stroke: #b0b0b0; stroke-opacity: 0.35; stroke-width: 0.8; stroke-linecap: square"/>
     </g>
     <g id="line2d_14">
      <g>
       <use xlink:href="#mc9516bb0ea" x="759.949897" y="366.84327" style="stroke: #000000; stroke-width: 0.8"/>
      </g>
     </g>
     <g id="text_7">
      <text style="font-size: 10px; font-family: 'DejaVu Sans', 'Bitstream Vera Sans', 'Computer Modern Sans Serif', 'Lucida Grande', 'Verdana', 'Geneva', 'Lucid', 'Arial', 'Helvetica', 'Avant Garde', sans-serif; text-anchor: middle" x="759.949897" y="381.441707" transform="rotate(-0 759.949897 381.441707)">10000</text>
     </g>
    </g>
    <g id="text_8">
     <text style="font-size: 10px; font-family: 'DejaVu Sans', 'Bitstream Vera Sans', 'Computer Modern Sans Serif', 'Lucida Grande', 'Verdana', 'Geneva', 'Lucid', 'Arial', 'Helvetica', 'Avant Garde', sans-serif; text-anchor: middle" x="427.453666" y="395.119832" transform="rotate(-0 427.453666 395.119832)">Sample</text>
    </g>
   </g>
   <g id="matplotlib.axis_2">
    <g id="ytick_1">
     <g id="line2d_15">
      <path d="M 61.707813 322.943086 
L 793.19952 322.943086 
" clip-path="url(#pda3f76eb28)" style="fill: none; stroke: #b0b0b0; stroke-opacity: 0.35; stroke-width: 0.8; stroke-linecap: square"/>
     </g>
     <g id="line2d_16">
      <defs>
       <path id="m58d1e1d13c" d="M 0 0 
L -3.5 0 
" style="stroke: #000000; stroke-width: 0.8"/>
      </defs>
      <g>
       <use xlink:href="#m58d1e1d13c" x="61.707813" y="322.943086" style="stroke: #000000; stroke-width: 0.8"/>
      </g>
     </g>
     <g id="text_9">
      <text style="font-size: 10px; font-family: 'DejaVu Sans', 'Bitstream Vera Sans', 'Computer Modern Sans Serif', 'Lucida Grande', 'Verdana', 'Geneva', 'Lucid', 'Arial', 'Helvetica', 'Avant Garde', sans-serif; text-anchor: end" x="54.707813" y="326.742304" transform="rotate(-0 54.707813 326.742304)">−5300</text>
     </g>
    </g>
    <g id="ytick_2">
     <g id="line2d_17">
      <path d="M 61.707813 268.678334 
L 793.19952 268.678334 
" clip-path="url(#pda3f76eb28)" style="fill: none; stroke: #b0b0b0; stroke-opacity: 0.35; stroke-width: 0.8; stroke-linecap: square"/>
     </g>
     <g id="line2d_18">
      <g>
       <use xlink:href="#m58d1e1d13c" x="61.707813" y="268.678334" style="stroke: #000000; stroke-width: 0.8"/>
      </g>
     </g>
     <g id="text_10">
      <text style="font-size: 10px; font-family: 'DejaVu Sans', 'Bitstream Vera Sans', 'Computer Modern Sans Serif', 'Lucida Grande', 'Verdana', 'Geneva', 'Lucid', 'Arial', 'Helvetica', 'Avant Garde', sans-serif; text-anchor: end" x="54.707813" y="272.477553" transform="rotate(-0 54.707813 272.477553)">−5200</text>
     </g>
    </g>
    <g id="ytick_3">
     <g id="line2d_19">
      <path d="M 61.707813 214.413582 
L 793.19952 214.413582 
" clip-path="url(#pda3f76eb28)" style="fill: none; stroke: #b0b0b0; stroke-opacity: 0.35; stroke-width: 0.8; stroke-linecap: square"/>
     </g>
     <g id="line2d_20">
      <g>
       <use xlink:href="#m58d1e1d13c" x="61.707813" y="214.413582" style="stroke: #000000; stroke-width: 0.8"/>
      </g>
     </g>
     <g id="text_11">
      <text style="font-size: 10px; font-family: 'DejaVu Sans', 'Bitstream Vera Sans', 'Computer Modern Sans Serif', 'Lucida Grande', 'Verdana', 'Geneva', 'Lucid', 'Arial', 'Helvetica', 'Avant Garde', sans-serif; text-anchor: end" x="54.707813" y="218.212801" transform="rotate(-0 54.707813 218.212801)">−5100</text>
     </g>
    </g>
    <g id="ytick_4">
     <g id="line2d_21">
      <path d="M 61.707813 160.14883 
L 793.19952 160.14883 
" clip-path="url(#pda3f76eb28)" style="fill: none; stroke: #b0b0b0; stroke-opacity: 0.35; stroke-width: 0.8; stroke-linecap: square"/>
     </g>
     <g id="line2d_22">
      <g>
       <use xlink:href="#m58d1e1d13c" x="61.707813" y="160.14883" style="stroke: #000000; stroke-width: 0.8"/>
      </g>
     </g>
     <g id="text_12">
      <text style="font-size: 10px; font-family: 'DejaVu Sans', 'Bitstream Vera Sans', 'Computer Modern Sans Serif', 'Lucida Grande', 'Verdana', 'Geneva', 'Lucid', 'Arial', 'Helvetica', 'Avant Garde', sans-serif; text-anchor: end" x="54.707813" y="163.948049" transform="rotate(-0 54.707813 163.948049)">−5000</text>
     </g>
    </g>
    <g id="ytick_5">
     <g id="line2d_23">
      <path d="M 61.707813 105.884078 
L 793.19952 105.884078 
" clip-path="url(#pda3f76eb28)" style="fill: none; stroke: #b0b0b0; stroke-opacity: 0.35; stroke-width: 0.8; stroke-linecap: square"/>
     </g>
     <g id="line2d_24">
      <g>
       <use xlink:href="#m58d1e1d13c" x="61.707813" y="105.884078" style="stroke: #000000; stroke-width: 0.8"/>
      </g>
     </g>
     <g id="text_13">
      <text style="font-size: 10px; font-family: 'DejaVu Sans', 'Bitstream Vera Sans', 'Computer Modern Sans Serif', 'Lucida Grande', 'Verdana', 'Geneva', 'Lucid', 'Arial', 'Helvetica', 'Avant Garde', sans-serif; text-anchor: end" x="54.707813" y="109.683297" transform="rotate(-0 54.707813 109.683297)">−4900</text>
     </g>
    </g>
    <g id="ytick_6">
     <g id="line2d_25">
      <path d="M 61.707813 51.619326 
L 793.19952 51.619326 
" clip-path="url(#pda3f76eb28)" style="fill: none; stroke: #b0b0b0; stroke-opacity: 0.35; stroke-width: 0.8; stroke-linecap: square"/>
     </g>
     <g id="line2d_26">
      <g>
       <use xlink:href="#m58d1e1d13c" x="61.707813" y="51.619326" style="stroke: #000000; stroke-width: 0.8"/>
      </g>
     </g>
     <g id="text_14">
      <text style="font-size: 10px; font-family: 'DejaVu Sans', 'Bitstream Vera Sans', 'Computer Modern Sans Serif', 'Lucida Grande', 'Verdana', 'Geneva', 'Lucid', 'Arial', 'Helvetica', 'Avant Garde', sans-serif; text-anchor: end" x="54.707813" y="55.418545" transform="rotate(-0 54.707813 55.418545)">−4800</text>
     </g>
    </g>
    <g id="text_15">
     <text style="font-size: 10px; font-family: 'DejaVu Sans', 'Bitstream Vera Sans', 'Computer Modern Sans Serif', 'Lucida Grande', 'Verdana', 'Geneva', 'Lucid', 'Arial', 'Helvetica', 'Avant Garde', sans-serif; text-anchor: middle" x="14.798438" y="194.606947" transform="rotate(-90 14.798438 194.606947)">PI output, ppb</text>
    </g>
   </g>
   <g id="line2d_27">
    <path d="M 94.957436 60.301687 
L 95.1791 60.301687 
L 95.400764 59.759039 
L 95.622428 60.301687 
L 95.844092 60.301687 
L 96.065756 60.844334 
L 98.725726 60.844334 
L 98.94739 61.386982 
L 99.612383 61.386982 
L 99.834047 61.929629 
L 100.720704 61.929629 
L 100.942368 62.472277 
L 102.050688 62.472277 
L 102.272353 63.014924 
L 102.715681 63.014924 
L 102.937345 63.557572 
L 103.824002 63.557572 
L 104.045666 64.100219 
L 105.597315 64.100219 
L 105.818979 63.557572 
L 106.483972 63.557572 
L 106.705636 63.014924 
L 109.143941 63.014924 
L 109.365606 62.472277 
L 110.252262 62.472277 
L 110.473926 61.929629 
L 112.24724 61.929629 
L 112.468904 61.386982 
L 113.798889 61.386982 
L 114.020553 61.929629 
L 114.242217 61.386982 
L 117.567179 61.386982 
L 117.788843 61.929629 
L 118.453836 61.929629 
L 118.6755 61.386982 
L 118.897164 61.929629 
L 120.227149 61.929629 
L 120.448813 61.386982 
L 121.113806 61.386982 
L 121.33547 61.929629 
L 122.887119 61.929629 
L 123.108783 61.386982 
L 123.552111 61.386982 
L 123.773776 61.929629 
L 124.660432 61.929629 
L 124.882096 62.472277 
L 126.65541 62.472277 
L 126.877074 63.014924 
L 127.542066 63.014924 
L 127.985394 64.100219 
L 128.872051 64.100219 
L 129.093715 64.642867 
L 129.758708 64.642867 
L 129.980372 64.100219 
L 130.202036 64.100219 
L 130.4237 64.642867 
L 130.645364 64.100219 
L 131.088693 64.100219 
L 131.310357 64.642867 
L 131.532021 64.100219 
L 131.975349 64.100219 
L 132.197013 63.557572 
L 132.418678 64.100219 
L 132.640342 63.557572 
L 134.856983 63.557572 
L 135.078647 63.014924 
L 135.521976 63.014924 
L 135.74364 63.557572 
L 136.186968 63.557572 
L 136.408632 63.014924 
L 143.280221 63.014924 
L 143.501885 63.557572 
L 143.945214 63.557572 
L 144.166878 63.014924 
L 144.83187 63.014924 
L 145.053534 63.557572 
L 145.275198 63.557572 
L 145.496863 63.014924 
L 145.718527 63.014924 
L 145.940191 63.557572 
L 146.605183 63.557572 
L 146.826848 64.100219 
L 147.048512 64.100219 
L 147.270176 63.557572 
L 147.49184 64.100219 
L 149.043489 64.100219 
L 149.486817 65.185514 
L 149.708482 65.185514 
L 149.930146 65.728162 
L 150.15181 65.185514 
L 150.373474 65.728162 
L 150.816802 65.728162 
L 151.038466 66.270809 
L 151.481795 66.270809 
L 151.703459 66.813457 
L 152.368451 66.813457 
L 152.590116 67.356104 
L 153.033444 67.356104 
L 153.255108 67.898752 
L 153.698436 67.898752 
L 153.9201 68.441399 
L 154.363429 68.441399 
L 154.585093 68.984047 
L 155.250085 68.984047 
L 155.47175 69.526694 
L 156.136742 69.526694 
L 156.358406 70.069342 
L 156.58007 69.526694 
L 158.796712 69.526694 
L 159.018376 68.984047 
L 159.24004 69.526694 
L 159.905033 69.526694 
L 160.126697 70.069342 
L 161.235018 70.069342 
L 161.456682 70.611989 
L 163.451659 70.611989 
L 163.673323 71.154637 
L 163.894987 70.611989 
L 164.338316 70.611989 
L 164.55998 71.154637 
L 165.668301 71.154637 
L 165.889965 71.697284 
L 166.111629 71.154637 
L 166.333293 71.697284 
L 166.998286 71.697284 
L 167.21995 72.239932 
L 167.884942 72.239932 
L 168.106606 72.78258 
L 169.214927 72.78258 
L 169.436591 73.325227 
L 169.658255 73.325227 
L 169.87992 73.867875 
L 170.98824 73.867875 
L 171.209904 74.410522 
L 171.653233 74.410522 
L 171.874897 74.95317 
L 172.983218 74.95317 
L 173.204882 75.495817 
L 173.426546 74.95317 
L 173.64821 75.495817 
L 174.091538 75.495817 
L 174.313203 76.038465 
L 174.534867 76.038465 
L 174.756531 76.581112 
L 174.978195 76.581112 
L 175.199859 77.12376 
L 175.643188 77.12376 
L 175.864852 77.666407 
L 176.086516 77.666407 
L 176.529844 78.751702 
L 176.973172 78.751702 
L 177.194837 79.29435 
L 177.638165 79.29435 
L 177.859829 79.836997 
L 178.303157 79.836997 
L 178.746486 80.922292 
L 179.411478 80.922292 
L 179.633142 81.46494 
L 179.854806 81.46494 
L 180.076471 82.007587 
L 180.298135 81.46494 
L 180.519799 81.46494 
L 180.741463 82.007587 
L 180.963127 81.46494 
L 181.184791 81.46494 
L 181.406456 82.007587 
L 181.62812 82.007587 
L 181.849784 81.46494 
L 182.071448 82.007587 
L 182.293112 81.46494 
L 182.514776 82.007587 
L 184.509754 82.007587 
L 184.731418 81.46494 
L 184.953082 81.46494 
L 185.174746 82.007587 
L 186.061403 82.007587 
L 186.283067 82.550235 
L 186.504731 82.007587 
L 187.169724 82.007587 
L 187.391388 82.550235 
L 187.613052 82.007587 
L 187.834716 82.550235 
L 188.943037 82.550235 
L 189.164701 83.092882 
L 189.386365 82.550235 
L 189.608029 83.092882 
L 190.494686 83.092882 
L 190.71635 83.63553 
L 190.938014 83.092882 
L 191.381342 83.092882 
L 191.603007 83.63553 
L 193.37632 83.63553 
L 193.597984 84.178177 
L 194.262976 84.178177 
L 194.484641 84.720825 
L 194.706305 84.178177 
L 194.927969 84.178177 
L 195.149633 84.720825 
L 195.592961 84.720825 
L 195.814626 85.263472 
L 196.03629 85.263472 
L 196.257954 85.80612 
L 197.366275 85.80612 
L 197.587939 86.348767 
L 198.917924 86.348767 
L 199.139588 86.891415 
L 199.582916 86.891415 
L 199.80458 87.434063 
L 200.691237 87.434063 
L 200.912901 87.97671 
L 202.021222 87.97671 
L 202.242886 88.519358 
L 203.129543 88.519358 
L 203.351207 89.062005 
L 203.572871 89.062005 
L 203.794535 89.604653 
L 204.016199 89.604653 
L 204.237863 90.1473 
L 204.681192 90.1473 
L 204.902856 90.689948 
L 206.232841 90.689948 
L 206.454505 91.232595 
L 206.676169 91.232595 
L 206.897833 90.689948 
L 207.119497 91.232595 
L 207.341162 91.232595 
L 207.562826 90.689948 
L 207.78449 90.689948 
L 208.006154 91.232595 
L 208.671146 91.232595 
L 208.892811 90.689948 
L 209.114475 90.689948 
L 209.336139 90.1473 
L 210.222796 90.1473 
L 210.44446 89.604653 
L 211.55278 89.604653 
L 211.774445 90.1473 
L 212.882765 90.1473 
L 213.10443 89.604653 
L 213.547758 89.604653 
L 213.769422 90.1473 
L 213.991086 89.604653 
L 214.877743 89.604653 
L 215.099407 89.062005 
L 218.202705 89.062005 
L 218.424369 88.519358 
L 219.754354 88.519358 
L 220.197682 87.434063 
L 220.419347 87.97671 
L 220.641011 87.434063 
L 221.749332 87.434063 
L 221.970996 87.97671 
L 222.19266 87.434063 
L 223.965973 87.434063 
L 224.187637 87.97671 
L 224.409301 87.434063 
L 224.630966 87.434063 
L 225.074294 88.519358 
L 225.295958 87.97671 
L 226.182615 87.97671 
L 226.404279 88.519358 
L 226.847607 88.519358 
L 227.069271 87.97671 
L 227.290935 88.519358 
L 227.5126 88.519358 
L 227.734264 89.062005 
L 228.399256 89.062005 
L 228.62092 88.519358 
L 228.842584 89.062005 
L 229.285913 89.062005 
L 229.507577 88.519358 
L 229.729241 89.062005 
L 230.172569 89.062005 
L 230.394234 88.519358 
L 230.615898 89.062005 
L 230.837562 88.519358 
L 231.28089 88.519358 
L 231.502554 89.062005 
L 231.945883 89.062005 
L 232.167547 88.519358 
L 232.389211 88.519358 
L 232.610875 87.97671 
L 233.719196 87.97671 
L 233.94086 87.434063 
L 234.162524 87.97671 
L 234.384188 87.434063 
L 235.935837 87.434063 
L 236.157502 86.891415 
L 236.60083 86.891415 
L 236.822494 86.348767 
L 237.044158 86.348767 
L 237.265822 85.80612 
L 237.709151 85.80612 
L 237.930815 85.263472 
L 238.152479 85.263472 
L 238.374143 84.720825 
L 239.039136 84.720825 
L 239.2608 84.178177 
L 239.482464 84.178177 
L 239.704128 83.63553 
L 239.925792 83.63553 
L 240.147456 83.092882 
L 240.36912 83.092882 
L 240.590785 82.550235 
L 241.255777 82.550235 
L 241.477441 82.007587 
L 242.364098 82.007587 
L 242.585762 81.46494 
L 242.807426 81.46494 
L 243.02909 80.922292 
L 243.472419 80.922292 
L 243.694083 80.379645 
L 244.802404 80.379645 
L 245.024068 79.836997 
L 245.245732 79.836997 
L 245.467396 79.29435 
L 246.575717 79.29435 
L 246.797381 78.751702 
L 247.019045 78.751702 
L 247.240709 78.209055 
L 247.684038 78.209055 
L 247.905702 77.666407 
L 248.127366 77.666407 
L 248.34903 77.12376 
L 249.679015 77.12376 
L 249.900679 76.581112 
L 250.344007 76.581112 
L 250.565672 76.038465 
L 250.787336 76.581112 
L 251.009 76.038465 
L 251.895656 76.038465 
L 252.117321 75.495817 
L 252.338985 76.038465 
L 252.560649 75.495817 
L 253.447306 75.495817 
L 253.66897 74.95317 
L 255.885611 74.95317 
L 256.107275 74.410522 
L 256.32894 74.95317 
L 256.772268 74.95317 
L 256.993932 74.410522 
L 259.875566 74.410522 
L 260.09723 73.867875 
L 260.540558 73.867875 
L 260.762223 73.325227 
L 261.648879 73.325227 
L 262.092208 72.239932 
L 262.535536 72.239932 
L 262.7572 71.697284 
L 262.978864 71.697284 
L 263.200528 71.154637 
L 263.422192 71.154637 
L 263.643857 70.611989 
L 263.865521 70.611989 
L 264.087185 70.069342 
L 264.308849 70.611989 
L 264.530513 70.069342 
L 264.752177 70.069342 
L 264.973842 69.526694 
L 265.195506 69.526694 
L 265.41717 68.984047 
L 266.303826 68.984047 
L 266.525491 68.441399 
L 266.747155 68.441399 
L 266.968819 67.898752 
L 267.633811 67.898752 
L 267.855476 67.356104 
L 268.298804 67.356104 
L 268.520468 66.813457 
L 268.742132 66.813457 
L 268.963796 66.270809 
L 269.407125 66.270809 
L 269.628789 65.728162 
L 270.072117 65.728162 
L 270.293781 65.185514 
L 271.84543 65.185514 
L 272.067094 64.642867 
L 272.510423 64.642867 
L 272.732087 64.100219 
L 273.397079 64.100219 
L 273.618744 61.929629 
L 275.392057 61.929629 
L 275.613721 61.386982 
L 275.835385 61.929629 
L 278.052027 61.929629 
L 278.273691 62.472277 
L 278.495355 62.472277 
L 278.717019 61.929629 
L 279.382012 61.929629 
L 279.603676 61.386982 
L 280.490332 61.386982 
L 280.711996 61.929629 
L 280.933661 61.386982 
L 284.036959 61.386982 
L 284.258623 61.929629 
L 284.480287 61.929629 
L 284.701951 62.472277 
L 285.810272 62.472277 
L 286.031936 61.929629 
L 287.140257 61.929629 
L 287.361921 61.386982 
L 288.470242 61.386982 
L 288.691906 60.844334 
L 290.908548 60.844334 
L 291.130212 60.301687 
L 295.563495 60.301687 
L 295.785159 59.759039 
L 296.228487 59.759039 
L 296.450151 60.301687 
L 296.671816 59.759039 
L 296.89348 60.301687 
L 297.336808 60.301687 
L 297.558472 59.759039 
L 297.780136 60.301687 
L 298.0018 59.759039 
L 298.223465 60.301687 
L 298.445129 60.301687 
L 298.666793 59.759039 
L 300.883434 59.759039 
L 301.105099 60.301687 
L 302.213419 60.301687 
L 302.435084 60.844334 
L 303.100076 60.844334 
L 303.543404 61.929629 
L 304.651725 61.929629 
L 304.873389 62.472277 
L 305.98171 62.472277 
L 306.203374 63.014924 
L 306.646702 63.014924 
L 306.868367 63.557572 
L 308.198352 63.557572 
L 308.420016 64.100219 
L 308.863344 64.100219 
L 309.085008 64.642867 
L 309.306672 64.100219 
L 310.193329 64.100219 
L 310.414993 63.557572 
L 310.636657 64.100219 
L 310.858321 63.557572 
L 311.079986 64.100219 
L 311.30165 64.100219 
L 311.523314 63.557572 
L 314.848276 63.557572 
L 315.06994 64.100219 
L 315.513269 64.100219 
L 315.734933 63.557572 
L 316.843254 63.557572 
L 317.064918 64.100219 
L 317.72991 64.100219 
L 317.951574 63.557572 
L 318.173238 64.100219 
L 318.394903 63.557572 
L 320.611544 63.557572 
L 320.833208 64.100219 
L 321.719865 64.100219 
L 321.941529 64.642867 
L 322.163193 64.100219 
L 323.271514 64.100219 
L 323.493178 64.642867 
L 325.266491 64.642867 
L 325.70982 65.728162 
L 325.931484 65.185514 
L 326.153148 65.728162 
L 327.926461 65.728162 
L 328.148125 66.270809 
L 328.36979 66.270809 
L 328.591454 66.813457 
L 329.256446 66.813457 
L 329.47811 67.356104 
L 330.143103 67.356104 
L 330.364767 67.898752 
L 331.029759 67.898752 
L 331.251424 68.441399 
L 332.13808 68.441399 
L 332.359744 68.984047 
L 332.581408 68.984047 
L 332.803073 69.526694 
L 333.246401 69.526694 
L 333.468065 70.069342 
L 333.911393 70.069342 
L 334.133058 70.611989 
L 334.354722 70.611989 
L 334.576386 71.154637 
L 335.019714 71.154637 
L 335.241378 71.697284 
L 339.009669 71.697284 
L 339.231333 72.239932 
L 339.452997 71.697284 
L 340.11799 71.697284 
L 340.339654 72.239932 
L 342.556295 72.239932 
L 342.77796 72.78258 
L 344.329609 72.78258 
L 344.551273 73.325227 
L 345.216265 73.325227 
L 345.437929 72.78258 
L 345.881258 72.78258 
L 346.102922 73.325227 
L 346.324586 73.325227 
L 346.54625 72.78258 
L 346.767914 72.78258 
L 346.989578 73.325227 
L 348.097899 73.325227 
L 348.319563 73.867875 
L 349.20622 73.867875 
L 349.427884 74.410522 
L 350.314541 74.410522 
L 350.536205 74.95317 
L 351.422862 74.95317 
L 351.644526 75.495817 
L 352.752846 75.495817 
L 352.974511 76.038465 
L 354.082831 76.038465 
L 354.304496 76.581112 
L 355.191152 76.581112 
L 355.63448 77.666407 
L 356.742801 77.666407 
L 356.964465 78.209055 
L 357.629458 78.209055 
L 357.851122 78.751702 
L 358.072786 78.751702 
L 358.29445 79.29435 
L 358.737779 79.29435 
L 358.959443 79.836997 
L 359.402771 79.836997 
L 359.624435 80.379645 
L 359.846099 79.836997 
L 360.067763 80.379645 
L 360.289428 80.379645 
L 360.511092 80.922292 
L 360.732756 80.922292 
L 360.95442 81.46494 
L 362.949397 81.46494 
L 363.171062 82.007587 
L 363.392726 81.46494 
L 363.61439 82.007587 
L 364.501047 82.007587 
L 364.722711 82.550235 
L 364.944375 82.550235 
L 365.166039 82.007587 
L 365.387703 82.550235 
L 365.831031 82.550235 
L 366.052696 82.007587 
L 366.27436 82.550235 
L 366.496024 82.007587 
L 368.491001 82.007587 
L 368.712665 81.46494 
L 369.155994 81.46494 
L 369.377658 80.922292 
L 369.599322 80.922292 
L 369.820986 81.46494 
L 371.150971 81.46494 
L 371.372635 82.007587 
L 371.594299 81.46494 
L 372.259292 81.46494 
L 372.480956 82.007587 
L 372.70262 81.46494 
L 372.924284 81.46494 
L 373.145949 82.007587 
L 374.919262 82.007587 
L 375.140926 81.46494 
L 375.36259 82.007587 
L 375.805918 82.007587 
L 376.027583 81.46494 
L 377.579232 81.46494 
L 377.800896 82.007587 
L 378.687552 82.007587 
L 378.909217 81.46494 
L 379.574209 81.46494 
L 379.795873 80.922292 
L 380.017537 81.46494 
L 380.460866 81.46494 
L 380.68253 80.922292 
L 380.904194 80.922292 
L 381.125858 81.46494 
L 381.347522 80.922292 
L 381.790851 80.922292 
L 382.012515 81.46494 
L 382.234179 80.922292 
L 382.677507 80.922292 
L 382.899171 81.46494 
L 384.007492 81.46494 
L 384.229156 82.007587 
L 385.115813 82.007587 
L 385.337477 82.550235 
L 386.445798 82.550235 
L 386.667462 83.092882 
L 387.11079 83.092882 
L 387.332454 83.63553 
L 387.554119 83.092882 
L 390.657417 83.092882 
L 390.879081 82.550235 
L 391.100745 82.550235 
L 391.322409 83.092882 
L 391.544073 82.550235 
L 391.987402 82.550235 
L 392.209066 82.007587 
L 393.317387 82.007587 
L 393.539051 81.46494 
L 394.647371 81.46494 
L 394.869036 80.922292 
L 395.0907 81.46494 
L 395.312364 80.922292 
L 395.977356 80.922292 
L 396.199021 80.379645 
L 397.529005 80.379645 
L 397.75067 79.836997 
L 398.637326 79.836997 
L 398.85899 79.29435 
L 399.302319 79.29435 
L 399.523983 78.751702 
L 399.745647 79.29435 
L 399.967311 78.751702 
L 402.405617 78.751702 
L 402.627281 78.209055 
L 402.848945 78.209055 
L 403.070609 77.666407 
L 403.957266 77.666407 
L 404.17893 77.12376 
L 404.622258 77.12376 
L 404.843923 76.581112 
L 405.952243 76.581112 
L 406.173907 76.038465 
L 406.395572 76.038465 
L 406.617236 76.581112 
L 406.8389 76.581112 
L 407.060564 76.038465 
L 407.725557 76.038465 
L 407.947221 76.581112 
L 408.168885 76.038465 
L 408.833877 76.038465 
L 409.055541 76.581112 
L 409.277206 76.581112 
L 409.49887 76.038465 
L 409.720534 76.038465 
L 409.942198 75.495817 
L 410.385526 75.495817 
L 410.607191 76.038465 
L 411.937175 76.038465 
L 412.15884 75.495817 
L 412.602168 75.495817 
L 412.823832 74.95317 
L 413.710489 74.95317 
L 413.932153 75.495817 
L 414.375481 75.495817 
L 414.597145 74.95317 
L 414.818809 75.495817 
L 415.040474 75.495817 
L 415.262138 74.95317 
L 415.705466 74.95317 
L 415.92713 74.410522 
L 416.592123 74.410522 
L 417.035451 73.325227 
L 417.257115 73.867875 
L 417.478779 73.325227 
L 418.365436 73.325227 
L 418.5871 72.78258 
L 418.808764 72.78258 
L 419.252093 71.697284 
L 420.138749 71.697284 
L 420.360413 71.154637 
L 420.582077 71.154637 
L 420.803742 70.611989 
L 421.690398 70.611989 
L 421.912062 70.069342 
L 422.577055 70.069342 
L 422.798719 69.526694 
L 423.242047 69.526694 
L 423.685376 68.441399 
L 424.350368 68.441399 
L 424.572032 67.898752 
L 424.793696 67.898752 
L 425.015361 67.356104 
L 425.680353 67.356104 
L 425.902017 66.813457 
L 426.56701 66.813457 
L 426.788674 66.270809 
L 427.896995 66.270809 
L 428.340323 65.185514 
L 429.005315 65.185514 
L 429.226979 64.642867 
L 430.556964 64.642867 
L 430.778629 64.100219 
L 431.665285 64.100219 
L 431.886949 63.557572 
L 432.330278 63.557572 
L 432.551942 64.100219 
L 432.773606 63.557572 
L 432.99527 63.557572 
L 433.216934 63.014924 
L 434.325255 63.014924 
L 434.546919 62.472277 
L 434.768583 62.472277 
L 434.990247 63.014924 
L 435.211912 62.472277 
L 435.433576 63.014924 
L 435.876904 63.014924 
L 436.098568 62.472277 
L 436.541897 62.472277 
L 436.763561 61.929629 
L 436.985225 62.472277 
L 437.428553 62.472277 
L 437.650217 61.929629 
L 437.871881 62.472277 
L 438.758538 62.472277 
L 438.980202 63.014924 
L 439.201866 62.472277 
L 439.423531 62.472277 
L 439.645195 63.014924 
L 439.866859 62.472277 
L 440.088523 62.472277 
L 440.310187 61.929629 
L 440.97518 61.929629 
L 441.196844 61.386982 
L 441.418508 61.386982 
L 441.640172 60.844334 
L 441.861836 60.844334 
L 442.0835 61.386982 
L 442.526829 60.301687 
L 442.970157 60.301687 
L 443.191821 59.759039 
L 443.635149 59.759039 
L 443.856814 59.216392 
L 444.078478 59.216392 
L 444.300142 58.673744 
L 445.186799 58.673744 
L 445.408463 58.131096 
L 445.630127 58.131096 
L 445.851791 57.588449 
L 446.516783 57.588449 
L 446.738448 57.045801 
L 447.181776 57.045801 
L 447.40344 56.503154 
L 448.290097 56.503154 
L 448.511761 55.960506 
L 449.620082 55.960506 
L 449.841746 55.417859 
L 450.06341 55.417859 
L 450.285074 54.875211 
L 450.728402 54.875211 
L 451.171731 53.789916 
L 451.615059 53.789916 
L 451.836723 54.332564 
L 452.058387 54.332564 
L 452.280051 53.789916 
L 453.831701 53.789916 
L 454.053365 53.247269 
L 454.940021 53.247269 
L 455.161685 53.789916 
L 455.605014 53.789916 
L 455.826678 53.247269 
L 456.270006 53.247269 
L 456.49167 52.704621 
L 459.15164 52.704621 
L 459.373304 53.247269 
L 459.594969 53.247269 
L 459.816633 52.704621 
L 460.038297 53.247269 
L 461.146618 53.247269 
L 461.368282 52.704621 
L 462.033274 52.704621 
L 462.254938 53.247269 
L 462.476603 52.704621 
L 462.698267 53.247269 
L 463.584923 53.247269 
L 463.806587 53.789916 
L 464.47158 53.789916 
L 464.693244 54.332564 
L 464.914908 54.332564 
L 465.136572 54.875211 
L 466.909886 54.875211 
L 467.13155 54.332564 
L 468.239871 54.332564 
L 468.461535 53.789916 
L 470.456512 53.789916 
L 470.678176 53.247269 
L 471.121505 53.247269 
L 471.343169 52.704621 
L 472.229825 52.704621 
L 472.451489 52.161974 
L 472.673154 52.704621 
L 472.894818 52.704621 
L 473.116482 52.161974 
L 473.338146 52.704621 
L 473.55981 52.161974 
L 474.224803 52.161974 
L 474.446467 52.704621 
L 474.668131 52.704621 
L 474.889795 52.161974 
L 475.998116 52.161974 
L 476.21978 51.619326 
L 476.884773 51.619326 
L 477.106437 52.161974 
L 477.328101 51.619326 
L 477.549765 51.619326 
L 477.771429 51.076679 
L 479.101414 51.076679 
L 479.323078 51.619326 
L 479.988071 51.619326 
L 480.209735 51.076679 
L 482.204712 51.076679 
L 482.426376 51.619326 
L 483.091369 51.619326 
L 483.313033 51.076679 
L 483.978025 51.076679 
L 484.19969 51.619326 
L 484.643018 51.619326 
L 484.864682 52.161974 
L 486.194667 52.161974 
L 486.416331 52.704621 
L 486.637995 52.161974 
L 486.859659 52.704621 
L 487.96798 52.704621 
L 488.189644 53.789916 
L 488.854637 53.789916 
L 489.076301 54.332564 
L 489.297965 54.332564 
L 489.519629 54.875211 
L 489.741293 54.332564 
L 489.962958 54.332564 
L 490.184622 54.875211 
L 490.849614 54.875211 
L 491.292943 55.960506 
L 491.514607 55.417859 
L 491.736271 55.417859 
L 491.957935 55.960506 
L 492.622927 55.960506 
L 492.844592 55.417859 
L 493.066256 55.960506 
L 493.509584 55.960506 
L 493.731248 55.417859 
L 493.952912 55.960506 
L 494.174577 55.417859 
L 494.396241 55.960506 
L 495.061233 55.960506 
L 495.282897 55.417859 
L 495.504561 55.417859 
L 495.726226 55.960506 
L 495.94789 55.417859 
L 497.721203 55.417859 
L 497.942867 55.960506 
L 498.164531 55.417859 
L 498.386195 55.960506 
L 498.60786 55.960506 
L 498.829524 55.417859 
L 500.381173 55.417859 
L 500.602837 54.875211 
L 501.489494 54.875211 
L 501.711158 54.332564 
L 502.819479 54.332564 
L 503.041143 54.875211 
L 503.262807 54.875211 
L 503.484471 54.332564 
L 503.706135 54.875211 
L 504.149463 54.875211 
L 504.371128 55.417859 
L 504.592792 54.332564 
L 504.814456 54.875211 
L 505.03612 54.875211 
L 505.257784 55.417859 
L 507.031097 55.417859 
L 507.252762 55.960506 
L 508.582747 55.960506 
L 508.804411 56.503154 
L 509.469403 56.503154 
L 509.691067 57.045801 
L 510.799388 57.045801 
L 511.021052 57.588449 
L 511.464381 57.588449 
L 511.686045 58.131096 
L 511.907709 58.131096 
L 512.129373 57.588449 
L 512.351037 58.131096 
L 512.572701 58.131096 
L 512.794365 58.673744 
L 513.902686 58.673744 
L 514.346015 59.759039 
L 515.011007 59.759039 
L 515.232671 60.301687 
L 515.454335 60.301687 
L 515.675999 60.844334 
L 516.340992 60.844334 
L 516.562656 61.386982 
L 516.78432 61.386982 
L 517.005984 61.929629 
L 517.449313 61.929629 
L 517.670977 62.472277 
L 519.000962 62.472277 
L 519.222626 63.014924 
L 520.330947 63.014924 
L 520.552611 63.557572 
L 522.10426 63.557572 
L 522.325924 64.100219 
L 523.212581 64.100219 
L 523.434245 63.557572 
L 523.655909 63.557572 
L 523.877573 64.100219 
L 524.099237 63.557572 
L 524.320901 64.100219 
L 526.315879 64.100219 
L 526.537543 64.642867 
L 527.4242 64.642867 
L 527.645864 65.185514 
L 528.53252 65.185514 
L 528.754185 64.642867 
L 528.975849 65.185514 
L 529.197513 64.642867 
L 529.419177 64.642867 
L 529.640841 65.185514 
L 530.527498 65.185514 
L 530.749162 65.728162 
L 530.970826 65.185514 
L 531.635819 65.185514 
L 532.079147 66.270809 
L 532.965803 66.270809 
L 533.187468 65.728162 
L 533.409132 65.728162 
L 533.630796 66.270809 
L 534.960781 66.270809 
L 535.182445 66.813457 
L 536.955758 66.813457 
L 537.177422 67.356104 
L 537.399087 67.356104 
L 537.620751 67.898752 
L 538.064079 67.898752 
L 538.285743 68.441399 
L 538.507407 67.898752 
L 538.729071 68.441399 
L 539.1724 68.441399 
L 539.394064 68.984047 
L 539.837392 68.984047 
L 540.059056 69.526694 
L 540.945713 69.526694 
L 541.167377 70.069342 
L 541.83237 70.069342 
L 542.054034 70.611989 
L 542.497362 70.611989 
L 542.719026 71.154637 
L 542.94069 71.154637 
L 543.162355 71.697284 
L 543.384019 71.697284 
L 543.605683 72.239932 
L 543.827347 72.239932 
L 544.049011 72.78258 
L 544.270675 72.78258 
L 544.492339 73.325227 
L 546.043989 73.325227 
L 546.265653 73.867875 
L 547.152309 73.867875 
L 547.373973 74.410522 
L 550.9206 74.410522 
L 551.142264 74.95317 
L 552.250585 74.95317 
L 552.472249 74.410522 
L 552.693913 74.410522 
L 552.915577 74.95317 
L 553.137241 74.95317 
L 553.358906 74.410522 
L 553.58057 74.95317 
L 553.802234 74.95317 
L 554.023898 75.495817 
L 555.575547 75.495817 
L 555.797211 76.038465 
L 557.34886 76.038465 
L 557.570525 76.581112 
L 559.122174 76.581112 
L 559.343838 77.12376 
L 560.00883 77.12376 
L 560.230494 77.666407 
L 561.560479 77.666407 
L 561.782143 78.209055 
L 562.003808 78.209055 
L 562.225472 77.666407 
L 563.112128 77.666407 
L 563.555457 78.751702 
L 563.777121 78.209055 
L 563.998785 78.751702 
L 564.663777 78.751702 
L 564.885442 79.29435 
L 566.658755 79.29435 
L 566.880419 79.836997 
L 567.323747 79.836997 
L 567.545411 80.379645 
L 568.653732 80.379645 
L 568.875396 80.922292 
L 569.097061 80.922292 
L 569.318725 81.46494 
L 570.205381 81.46494 
L 570.427045 82.007587 
L 570.870374 82.007587 
L 571.092038 81.46494 
L 571.313702 81.46494 
L 571.535366 82.007587 
L 571.75703 81.46494 
L 571.978695 82.007587 
L 572.200359 81.46494 
L 572.643687 81.46494 
L 572.865351 82.007587 
L 573.530344 82.007587 
L 573.752008 81.46494 
L 576.633642 81.46494 
L 576.855306 80.922292 
L 577.741963 80.922292 
L 577.963627 80.379645 
L 578.185291 80.922292 
L 578.406955 80.379645 
L 578.628619 80.379645 
L 578.850283 79.836997 
L 579.071947 79.836997 
L 579.293612 79.29435 
L 579.515276 79.29435 
L 579.73694 79.836997 
L 581.066925 79.836997 
L 581.288589 79.29435 
L 581.510253 79.29435 
L 581.731917 78.751702 
L 583.505231 78.751702 
L 583.726895 76.038465 
L 583.948559 76.581112 
L 584.391887 76.581112 
L 584.613551 77.12376 
L 584.835215 77.12376 
L 585.05688 77.666407 
L 585.500208 77.666407 
L 585.721872 78.209055 
L 592.815125 78.209055 
L 593.036789 79.29435 
L 593.258453 78.751702 
L 594.14511 78.751702 
L 594.366774 79.29435 
L 595.253431 79.29435 
L 595.475095 79.836997 
L 595.696759 79.836997 
L 595.918423 79.29435 
L 597.026744 79.29435 
L 597.248408 78.751702 
L 597.470072 79.29435 
L 597.691736 78.751702 
L 598.135065 78.751702 
L 598.356729 79.29435 
L 598.578393 78.751702 
L 599.908378 78.751702 
L 600.130042 78.209055 
L 600.351706 78.209055 
L 600.57337 77.666407 
L 600.795035 78.209055 
L 601.016699 77.666407 
L 601.238363 77.666407 
L 601.460027 77.12376 
L 602.568348 77.12376 
L 602.790012 76.581112 
L 603.011676 76.581112 
L 603.23334 76.038465 
L 604.341661 76.038465 
L 604.563325 75.495817 
L 605.006653 75.495817 
L 605.228318 74.95317 
L 607.001631 74.95317 
L 607.223295 74.410522 
L 607.444959 74.410522 
L 607.666623 73.867875 
L 608.109952 73.867875 
L 608.331616 73.325227 
L 610.326593 73.325227 
L 610.548257 72.78258 
L 610.769921 72.78258 
L 610.991586 72.239932 
L 611.878242 72.239932 
L 612.099906 71.697284 
L 613.87322 71.697284 
L 614.094884 71.154637 
L 614.538212 71.154637 
L 614.759876 71.697284 
L 614.98154 71.697284 
L 615.203205 71.154637 
L 615.868197 71.154637 
L 616.089861 70.611989 
L 616.754854 70.611989 
L 616.976518 71.154637 
L 617.198182 71.154637 
L 617.419846 70.611989 
L 621.409801 70.611989 
L 621.631465 70.069342 
L 622.518122 70.069342 
L 622.739786 70.611989 
L 622.96145 70.611989 
L 623.183114 70.069342 
L 623.626442 70.069342 
L 623.848107 69.526694 
L 625.178091 69.526694 
L 625.399756 68.984047 
L 626.064748 68.984047 
L 626.286412 68.441399 
L 627.173069 68.441399 
L 627.616397 67.356104 
L 628.059725 67.356104 
L 628.28139 66.813457 
L 629.168046 66.813457 
L 629.38971 66.270809 
L 629.833039 66.270809 
L 630.054703 65.728162 
L 630.498031 65.728162 
L 630.719695 66.270809 
L 630.941359 65.728162 
L 631.163024 65.728162 
L 631.384688 65.185514 
L 632.493009 65.185514 
L 632.714673 64.642867 
L 632.936337 64.642867 
L 633.158001 65.185514 
L 633.379665 64.642867 
L 633.601329 64.642867 
L 633.822993 64.100219 
L 634.266322 64.100219 
L 634.487986 63.557572 
L 636.704627 63.557572 
L 636.926292 63.014924 
L 637.812948 63.014924 
L 638.034612 62.472277 
L 638.699605 62.472277 
L 638.921269 63.014924 
L 639.142933 63.014924 
L 639.364597 62.472277 
L 639.586261 62.472277 
L 639.807926 63.014924 
L 640.472918 63.014924 
L 640.694582 62.472277 
L 641.802903 62.472277 
L 642.024567 61.929629 
L 642.246231 61.929629 
L 642.467895 62.472277 
L 643.354552 62.472277 
L 643.576216 61.929629 
L 644.241209 61.929629 
L 644.462873 62.472277 
L 644.684537 61.929629 
L 644.906201 61.929629 
L 645.127865 62.472277 
L 645.349529 61.929629 
L 646.014522 61.929629 
L 646.236186 62.472277 
L 646.45785 61.929629 
L 647.566171 61.929629 
L 647.787835 61.386982 
L 648.452828 61.386982 
L 648.674492 60.844334 
L 649.339484 60.844334 
L 649.561148 60.301687 
L 649.782812 60.301687 
L 650.004477 60.844334 
L 650.226141 60.301687 
L 650.447805 60.301687 
L 650.669469 59.759039 
L 650.891133 60.301687 
L 651.112797 59.759039 
L 651.77779 59.759039 
L 651.999454 59.216392 
L 652.886111 59.216392 
L 653.107775 58.673744 
L 653.994431 58.673744 
L 654.216096 58.131096 
L 654.659424 58.131096 
L 654.881088 57.588449 
L 655.989409 57.588449 
L 656.211073 57.045801 
L 658.20605 57.045801 
L 658.427714 56.503154 
L 659.757699 56.503154 
L 659.979364 57.045801 
L 660.86602 57.045801 
L 661.087684 56.503154 
L 661.309348 57.045801 
L 663.52599 57.045801 
L 663.747654 57.588449 
L 663.969318 57.588449 
L 664.190982 57.045801 
L 664.855975 57.045801 
L 665.077639 57.588449 
L 666.18596 57.588449 
L 666.407624 58.131096 
L 666.629288 58.131096 
L 666.850952 58.673744 
L 667.072616 58.673744 
L 667.294281 58.131096 
L 667.515945 58.131096 
L 667.737609 58.673744 
L 669.067594 58.673744 
L 669.289258 59.216392 
L 669.732586 59.216392 
L 669.95425 58.673744 
L 670.175915 59.216392 
L 670.397579 58.673744 
L 670.619243 59.216392 
L 670.840907 58.673744 
L 671.062571 58.673744 
L 671.284235 58.131096 
L 673.279213 58.131096 
L 673.500877 57.588449 
L 673.944205 57.588449 
L 674.165869 58.131096 
L 674.387534 57.588449 
L 676.382511 57.588449 
L 676.604175 58.131096 
L 677.047503 58.131096 
L 677.269168 58.673744 
L 678.599152 58.673744 
L 678.820817 58.131096 
L 679.042481 58.673744 
L 682.810771 58.673744 
L 683.2541 59.759039 
L 683.919092 59.759039 
L 684.140756 60.301687 
L 685.027413 60.301687 
L 685.249077 60.844334 
L 685.470741 60.844334 
L 685.692405 60.301687 
L 685.91407 60.844334 
L 686.135734 60.301687 
L 686.357398 60.301687 
L 686.579062 60.844334 
L 687.02239 60.844334 
L 687.244054 61.386982 
L 687.909047 61.386982 
L 688.130711 61.929629 
L 688.795704 61.929629 
L 689.017368 62.472277 
L 689.239032 62.472277 
L 689.460696 63.014924 
L 689.904024 63.014924 
L 690.125688 63.557572 
L 691.012345 63.557572 
L 691.234009 64.100219 
L 691.899002 64.100219 
L 692.120666 64.642867 
L 694.337307 64.642867 
L 694.558972 65.185514 
L 699.435583 65.185514 
L 699.657247 65.728162 
L 701.873889 65.728162 
L 702.095553 66.270809 
L 702.317217 65.728162 
L 702.538881 66.270809 
L 704.755523 66.270809 
L 704.977187 66.813457 
L 705.198851 66.813457 
L 705.420515 67.356104 
L 706.307172 67.356104 
L 706.528836 67.898752 
L 707.637157 67.898752 
L 707.858821 68.441399 
L 708.302149 68.441399 
L 708.523813 67.898752 
L 708.745477 68.441399 
L 708.967142 67.898752 
L 709.188806 68.441399 
L 709.41047 68.441399 
L 709.632134 68.984047 
L 710.518791 68.984047 
L 710.740455 69.526694 
L 711.405447 69.526694 
L 711.627111 70.069342 
L 712.07044 70.069342 
L 712.292104 70.611989 
L 712.513768 70.611989 
L 712.735432 71.154637 
L 712.957096 71.154637 
L 713.17876 71.697284 
L 713.400425 71.697284 
L 713.622089 72.239932 
L 714.287081 72.239932 
L 714.508745 72.78258 
L 715.173738 72.78258 
L 715.395402 73.325227 
L 716.060394 73.325227 
L 716.282059 72.78258 
L 716.503723 73.325227 
L 716.725387 72.78258 
L 717.168715 72.78258 
L 717.390379 73.325227 
L 717.612044 73.325227 
L 717.833708 72.78258 
L 718.055372 73.325227 
L 718.720364 73.325227 
L 718.942028 73.867875 
L 721.380334 73.867875 
L 721.601998 74.410522 
L 722.045327 74.410522 
L 722.266991 73.867875 
L 722.488655 74.410522 
L 726.921938 74.410522 
L 727.143602 74.95317 
L 728.473587 74.95317 
L 728.695251 75.495817 
L 728.916915 74.95317 
L 729.13858 74.95317 
L 729.360244 75.495817 
L 729.803572 75.495817 
L 730.025236 76.038465 
L 730.690229 76.038465 
L 730.911893 76.581112 
L 731.355221 76.581112 
L 731.576885 77.12376 
L 732.020214 77.12376 
L 732.241878 77.666407 
L 732.685206 77.666407 
L 732.90687 78.209055 
L 734.458519 78.209055 
L 734.680183 78.751702 
L 735.123512 78.751702 
L 735.345176 79.29435 
L 736.453497 79.29435 
L 736.675161 79.836997 
L 737.340153 79.836997 
L 737.561817 80.379645 
L 737.783482 80.379645 
L 738.22681 81.46494 
L 739.113466 81.46494 
L 739.335131 82.007587 
L 739.778459 82.007587 
L 740.000123 81.46494 
L 740.665116 81.46494 
L 740.88678 80.922292 
L 741.551772 80.922292 
L 741.773436 81.46494 
L 742.216765 81.46494 
L 742.438429 80.922292 
L 743.325085 80.922292 
L 743.54675 80.379645 
L 746.206719 80.379645 
L 746.428384 80.922292 
L 746.650048 80.379645 
L 746.871712 80.922292 
L 747.093376 80.379645 
L 748.645025 80.379645 
L 748.866689 78.209055 
L 749.531682 78.209055 
L 749.753346 78.751702 
L 749.97501 78.751702 
L 750.196674 79.29435 
L 751.304995 79.29435 
L 751.526659 79.836997 
L 752.856644 79.836997 
L 753.078308 79.29435 
L 753.299972 79.29435 
L 753.521636 79.836997 
L 753.743301 79.29435 
L 754.186629 79.29435 
L 754.408293 79.836997 
L 755.29495 79.836997 
L 755.516614 80.379645 
L 757.068263 80.379645 
L 757.289927 80.922292 
L 758.176584 80.922292 
L 758.398248 81.46494 
L 758.841576 81.46494 
L 759.06324 82.007587 
L 759.949897 82.007587 
L 759.949897 82.007587 
" clip-path="url(#pda3f76eb28)" style="fill: none; stroke: #1f77b4; stroke-width: 1.1; stroke-linecap: square"/>
   </g>
   <g id="line2d_28">
    <path d="M 94.957436 308.83425 
L 95.400764 308.83425 
L 95.622428 309.376898 
L 96.065756 309.376898 
L 96.28742 309.919545 
L 97.83907 309.919545 
L 98.060734 309.376898 
L 98.282398 309.919545 
L 100.277375 309.919545 
L 100.499039 310.462193 
L 100.942368 310.462193 
L 101.164032 311.00484 
L 101.829024 311.00484 
L 102.050688 311.547488 
L 102.272353 311.547488 
L 102.494017 312.090135 
L 104.045666 312.090135 
L 104.26733 312.632783 
L 104.488994 312.090135 
L 104.710658 312.090135 
L 104.932322 312.632783 
L 105.153987 312.632783 
L 105.375651 313.17543 
L 106.9273 313.17543 
L 107.148964 312.632783 
L 107.592292 312.632783 
L 107.813956 313.17543 
L 108.257285 313.17543 
L 108.478949 312.632783 
L 108.700613 313.17543 
L 110.473926 313.17543 
L 110.69559 313.718078 
L 110.917255 313.17543 
L 111.138919 313.718078 
L 111.360583 313.718078 
L 111.582247 313.17543 
L 111.803911 313.718078 
L 112.025575 313.17543 
L 112.24724 313.718078 
L 113.798889 313.718078 
L 114.020553 314.260725 
L 116.01553 314.260725 
L 116.237194 314.803373 
L 118.010508 314.803373 
L 118.232172 315.34602 
L 119.340492 315.34602 
L 119.562157 315.888668 
L 120.448813 315.888668 
L 120.670477 315.34602 
L 120.892142 315.888668 
L 122.443791 315.888668 
L 122.665455 316.431315 
L 122.887119 315.888668 
L 123.552111 315.888668 
L 123.773776 316.431315 
L 124.217104 316.431315 
L 124.438768 316.973963 
L 124.660432 316.431315 
L 124.882096 316.973963 
L 125.768753 316.973963 
L 125.990417 317.516611 
L 127.542066 317.516611 
L 127.76373 318.059258 
L 129.093715 318.059258 
L 129.315379 317.516611 
L 129.537044 318.059258 
L 130.4237 318.059258 
L 130.645364 317.516611 
L 130.867028 318.059258 
L 131.088693 318.059258 
L 131.310357 318.601906 
L 131.532021 318.059258 
L 132.197013 318.059258 
L 132.418678 318.601906 
L 133.748662 318.601906 
L 133.970327 319.144553 
L 134.191991 318.601906 
L 134.413655 319.144553 
L 135.078647 319.144553 
L 135.300312 319.687201 
L 136.630296 319.687201 
L 136.851961 320.229848 
L 137.516953 320.229848 
L 137.738617 319.687201 
L 137.960281 319.687201 
L 138.181946 320.229848 
L 138.40361 319.687201 
L 138.625274 320.229848 
L 139.068602 320.229848 
L 139.290266 319.687201 
L 139.51193 319.687201 
L 139.733595 320.229848 
L 140.176923 320.229848 
L 140.398587 320.772496 
L 140.620251 320.229848 
L 141.285244 320.229848 
L 141.506908 320.772496 
L 143.723549 320.772496 
L 143.945214 321.315143 
L 144.166878 320.772496 
L 144.388542 320.772496 
L 144.610206 321.315143 
L 146.605183 321.315143 
L 146.826848 321.857791 
L 147.048512 321.857791 
L 147.270176 321.315143 
L 147.49184 321.857791 
L 147.935168 321.857791 
L 148.156832 322.400438 
L 149.708482 322.400438 
L 149.930146 322.943086 
L 152.146787 322.943086 
L 152.368451 323.485733 
L 153.476772 323.485733 
L 153.698436 324.028381 
L 155.250085 324.028381 
L 155.47175 324.571028 
L 156.136742 324.571028 
L 156.358406 325.113676 
L 157.910055 325.113676 
L 158.131719 324.571028 
L 158.575048 324.571028 
L 158.796712 325.113676 
L 159.905033 325.113676 
L 160.126697 325.656323 
L 161.013353 325.656323 
L 161.235018 326.198971 
L 161.456682 325.656323 
L 161.90001 325.656323 
L 162.121674 326.198971 
L 164.55998 326.198971 
L 164.781644 326.741618 
L 165.668301 326.741618 
L 165.889965 327.284266 
L 166.111629 326.741618 
L 166.333293 327.284266 
L 167.663278 327.284266 
L 167.884942 327.826913 
L 169.658255 327.826913 
L 169.87992 328.369561 
L 170.101584 328.369561 
L 170.323248 327.826913 
L 170.544912 327.826913 
L 170.766576 328.369561 
L 170.98824 327.826913 
L 172.096561 327.826913 
L 172.318225 328.369561 
L 174.756531 328.369561 
L 174.978195 328.912208 
L 175.199859 328.912208 
L 175.421523 329.454856 
L 176.30818 329.454856 
L 176.529844 329.997503 
L 176.751508 329.997503 
L 176.973172 329.454856 
L 177.194837 329.997503 
L 177.859829 329.997503 
L 178.081493 330.540151 
L 178.96815 330.540151 
L 179.189814 331.082799 
L 179.633142 331.082799 
L 179.854806 331.625446 
L 180.076471 331.625446 
L 180.298135 331.082799 
L 180.963127 331.082799 
L 181.184791 331.625446 
L 181.406456 331.625446 
L 181.62812 331.082799 
L 182.071448 331.082799 
L 182.293112 331.625446 
L 183.401433 331.625446 
L 183.623097 332.168094 
L 184.28809 332.168094 
L 184.509754 331.625446 
L 184.953082 331.625446 
L 185.174746 332.168094 
L 185.618074 332.168094 
L 185.839739 331.625446 
L 186.061403 332.168094 
L 186.948059 332.168094 
L 187.169724 332.710741 
L 188.499708 332.710741 
L 188.721373 333.253389 
L 190.273022 333.253389 
L 190.494686 332.710741 
L 190.71635 333.253389 
L 191.159678 333.253389 
L 191.381342 333.796036 
L 192.489663 333.796036 
L 192.711327 333.253389 
L 192.932992 333.796036 
L 193.154656 333.796036 
L 193.37632 333.253389 
L 193.597984 333.796036 
L 196.03629 333.796036 
L 196.257954 334.338684 
L 196.479618 334.338684 
L 196.701282 334.881331 
L 196.922946 334.338684 
L 198.69626 334.338684 
L 198.917924 334.881331 
L 201.356229 334.881331 
L 201.577894 334.338684 
L 201.799558 334.881331 
L 203.572871 334.881331 
L 203.794535 335.423979 
L 204.902856 335.423979 
L 205.12452 334.881331 
L 206.011177 334.881331 
L 206.232841 335.423979 
L 208.227818 335.423979 
L 208.449482 334.881331 
L 208.671146 335.423979 
L 209.114475 335.423979 
L 209.336139 334.881331 
L 209.557803 334.881331 
L 209.779467 335.423979 
L 210.001131 335.423979 
L 210.222796 334.881331 
L 210.887788 334.881331 
L 211.109452 335.423979 
L 212.217773 335.423979 
L 212.439437 334.881331 
L 212.661101 335.423979 
L 213.547758 335.423979 
L 213.769422 335.966626 
L 214.877743 335.966626 
L 215.099407 335.423979 
L 217.759377 335.423979 
L 217.981041 335.966626 
L 218.202705 335.423979 
L 218.867698 335.423979 
L 219.089362 334.881331 
L 219.311026 335.423979 
L 219.53269 334.881331 
L 219.754354 334.881331 
L 219.976018 334.338684 
L 220.197682 334.338684 
L 220.419347 334.881331 
L 220.641011 334.338684 
L 224.409301 334.338684 
L 224.630966 333.796036 
L 224.85263 334.338684 
L 225.295958 334.338684 
L 225.517622 333.796036 
L 225.739286 333.796036 
L 225.96095 334.338684 
L 226.182615 333.796036 
L 226.404279 334.338684 
L 226.625943 333.796036 
L 227.734264 333.796036 
L 227.955928 334.338684 
L 228.177592 333.796036 
L 228.399256 333.796036 
L 228.62092 333.253389 
L 229.064249 333.253389 
L 229.285913 332.710741 
L 230.615898 332.710741 
L 230.837562 332.168094 
L 232.167547 332.168094 
L 232.389211 331.625446 
L 233.275868 331.625446 
L 233.497532 332.168094 
L 233.719196 331.625446 
L 235.270845 331.625446 
L 235.492509 331.082799 
L 235.714173 331.625446 
L 235.935837 331.625446 
L 236.157502 331.082799 
L 236.822494 331.082799 
L 237.044158 330.540151 
L 238.152479 330.540151 
L 238.374143 329.997503 
L 239.2608 329.997503 
L 239.482464 329.454856 
L 240.147456 329.454856 
L 240.36912 328.912208 
L 242.364098 328.912208 
L 242.585762 328.369561 
L 243.250754 328.369561 
L 243.472419 327.826913 
L 243.915747 327.826913 
L 244.137411 328.369561 
L 244.359075 328.369561 
L 244.580739 327.826913 
L 245.024068 327.826913 
L 245.245732 327.284266 
L 246.797381 327.284266 
L 247.019045 326.741618 
L 247.462373 326.741618 
L 247.684038 326.198971 
L 247.905702 326.741618 
L 248.127366 326.198971 
L 248.34903 326.198971 
L 248.570694 325.656323 
L 248.792358 325.656323 
L 249.014022 326.198971 
L 249.235687 325.656323 
L 249.457351 325.656323 
L 249.679015 325.113676 
L 250.344007 325.113676 
L 250.565672 324.571028 
L 251.452328 324.571028 
L 251.673992 324.028381 
L 252.560649 324.028381 
L 252.782313 323.485733 
L 253.447306 323.485733 
L 253.66897 322.943086 
L 253.890634 322.943086 
L 254.112298 322.400438 
L 254.333962 322.400438 
L 254.555626 322.943086 
L 254.77729 322.943086 
L 254.998955 322.400438 
L 257.215596 322.400438 
L 257.43726 321.857791 
L 257.880589 321.857791 
L 258.102253 321.315143 
L 258.323917 321.857791 
L 258.545581 321.315143 
L 259.432238 321.315143 
L 259.653902 320.772496 
L 260.09723 320.772496 
L 260.318894 320.229848 
L 261.427215 320.229848 
L 261.648879 319.687201 
L 262.7572 319.687201 
L 262.978864 319.144553 
L 263.422192 319.144553 
L 263.643857 318.601906 
L 264.308849 318.601906 
L 264.530513 318.059258 
L 266.303826 318.059258 
L 266.525491 317.516611 
L 266.747155 317.516611 
L 266.968819 316.973963 
L 267.855476 316.973963 
L 268.07714 316.431315 
L 268.520468 316.431315 
L 268.742132 315.888668 
L 270.072117 315.888668 
L 270.293781 315.34602 
L 270.515445 315.34602 
L 270.73711 314.803373 
L 272.067094 314.803373 
L 272.288759 315.34602 
L 272.510423 314.803373 
L 273.840408 314.803373 
L 274.283736 313.718078 
L 276.500378 313.718078 
L 276.722042 313.17543 
L 278.717019 313.17543 
L 278.938683 312.632783 
L 279.603676 312.632783 
L 279.82534 312.090135 
L 282.706974 312.090135 
L 282.928638 311.547488 
L 283.150302 312.090135 
L 283.371966 311.547488 
L 284.036959 311.547488 
L 284.258623 311.00484 
L 284.480287 311.547488 
L 285.14528 311.547488 
L 285.366944 309.376898 
L 286.475264 309.376898 
L 286.696929 309.919545 
L 288.470242 309.919545 
L 288.691906 310.462193 
L 288.91357 309.919545 
L 289.135234 310.462193 
L 290.908548 310.462193 
L 291.130212 309.919545 
L 291.57354 309.919545 
L 291.795204 310.462193 
L 292.238532 310.462193 
L 292.460197 309.919545 
L 292.681861 310.462193 
L 292.903525 309.919545 
L 293.125189 310.462193 
L 294.23351 310.462193 
L 294.455174 311.00484 
L 294.898502 311.00484 
L 295.120166 310.462193 
L 295.341831 311.00484 
L 295.785159 311.00484 
L 296.006823 310.462193 
L 298.0018 310.462193 
L 298.223465 311.00484 
L 298.445129 310.462193 
L 301.105099 310.462193 
L 301.326763 311.00484 
L 302.435084 311.00484 
L 302.656748 310.462193 
L 303.100076 310.462193 
L 303.32174 311.00484 
L 304.208397 311.00484 
L 304.430061 310.462193 
L 305.538382 310.462193 
L 305.760046 311.00484 
L 306.868367 311.00484 
L 307.090031 311.547488 
L 308.863344 311.547488 
L 309.085008 312.090135 
L 309.306672 311.547488 
L 312.188306 311.547488 
L 312.40997 312.090135 
L 313.296627 312.090135 
L 313.518291 312.632783 
L 314.848276 312.632783 
L 315.06994 313.17543 
L 315.291604 312.632783 
L 316.621589 312.632783 
L 316.843254 313.17543 
L 317.286582 313.17543 
L 317.508246 313.718078 
L 317.72991 313.718078 
L 317.951574 313.17543 
L 318.616567 313.17543 
L 318.838231 312.632783 
L 319.724888 312.632783 
L 319.946552 313.17543 
L 320.833208 313.17543 
L 321.054872 313.718078 
L 322.384857 313.718078 
L 322.606522 314.260725 
L 324.158171 314.260725 
L 324.379835 314.803373 
L 324.601499 314.260725 
L 325.266491 314.260725 
L 325.488156 314.803373 
L 325.931484 314.803373 
L 326.153148 315.34602 
L 326.374812 315.34602 
L 326.596476 314.803373 
L 326.81814 315.34602 
L 327.039805 315.34602 
L 327.261469 314.803373 
L 327.483133 315.34602 
L 327.704797 314.803373 
L 327.926461 315.34602 
L 328.148125 314.803373 
L 328.36979 315.34602 
L 329.256446 315.34602 
L 329.47811 315.888668 
L 329.699774 315.34602 
L 329.921439 315.888668 
L 330.364767 315.888668 
L 330.586431 316.431315 
L 333.468065 316.431315 
L 333.689729 316.973963 
L 334.79805 316.973963 
L 335.019714 316.431315 
L 335.241378 316.973963 
L 335.906371 316.973963 
L 336.128035 317.516611 
L 338.788005 317.516611 
L 339.009669 318.059258 
L 340.11799 318.059258 
L 340.339654 318.601906 
L 341.22631 318.601906 
L 341.447975 319.144553 
L 341.669639 318.601906 
L 342.334631 318.601906 
L 342.556295 319.144553 
L 342.77796 319.144553 
L 342.999624 319.687201 
L 344.107944 319.687201 
L 344.329609 320.229848 
L 344.772937 320.229848 
L 344.994601 320.772496 
L 345.216265 320.229848 
L 348.319563 320.229848 
L 348.762892 321.315143 
L 348.984556 320.772496 
L 349.20622 320.772496 
L 349.427884 321.315143 
L 349.871212 321.315143 
L 350.092877 321.857791 
L 351.422862 321.857791 
L 351.644526 322.400438 
L 354.304496 322.400438 
L 354.52616 322.943086 
L 354.747824 322.400438 
L 354.969488 322.400438 
L 355.412816 323.485733 
L 355.856145 323.485733 
L 356.077809 322.943086 
L 356.299473 323.485733 
L 357.629458 323.485733 
L 357.851122 324.028381 
L 358.072786 323.485733 
L 358.29445 324.028381 
L 358.737779 324.028381 
L 358.959443 324.571028 
L 359.846099 324.571028 
L 360.067763 325.113676 
L 361.176084 325.113676 
L 361.397748 324.571028 
L 361.619413 324.571028 
L 361.841077 325.113676 
L 362.949397 325.113676 
L 363.171062 325.656323 
L 363.392726 325.113676 
L 363.836054 325.113676 
L 364.057718 325.656323 
L 366.939352 325.656323 
L 367.161016 326.198971 
L 367.382681 326.198971 
L 367.604345 326.741618 
L 369.155994 326.741618 
L 369.377658 326.198971 
L 369.599322 326.198971 
L 369.820986 326.741618 
L 370.485979 326.741618 
L 370.707643 327.284266 
L 370.929307 326.741618 
L 371.150971 327.284266 
L 372.037628 327.284266 
L 372.259292 327.826913 
L 376.470911 327.826913 
L 376.692575 328.369561 
L 376.914239 327.826913 
L 377.135903 328.369561 
L 378.687552 328.369561 
L 378.909217 327.826913 
L 383.3425 327.826913 
L 383.564164 328.369561 
L 384.894149 328.369561 
L 385.115813 327.826913 
L 385.559141 327.826913 
L 385.780805 328.369561 
L 387.997447 328.369561 
L 388.219111 327.826913 
L 389.105768 327.826913 
L 389.327432 328.369561 
L 389.549096 327.826913 
L 389.77076 328.369561 
L 389.992424 327.826913 
L 395.0907 327.826913 
L 395.312364 327.284266 
L 395.755692 327.284266 
L 395.977356 327.826913 
L 396.199021 327.826913 
L 396.420685 327.284266 
L 396.642349 327.284266 
L 396.864013 327.826913 
L 397.085677 327.284266 
L 397.529005 327.284266 
L 397.75067 327.826913 
L 397.972334 327.284266 
L 399.967311 327.284266 
L 400.188975 327.826913 
L 400.410639 327.284266 
L 403.070609 327.284266 
L 403.292273 326.741618 
L 403.513938 327.284266 
L 403.957266 327.284266 
L 404.17893 326.741618 
L 405.287251 326.741618 
L 405.508915 326.198971 
L 405.952243 326.198971 
L 406.173907 325.656323 
L 407.060564 325.656323 
L 407.282228 325.113676 
L 407.503892 325.113676 
L 407.725557 325.656323 
L 409.720534 325.656323 
L 409.942198 325.113676 
L 410.607191 325.113676 
L 410.828855 325.656323 
L 412.380504 325.656323 
L 412.602168 325.113676 
L 412.823832 325.113676 
L 413.045496 324.571028 
L 414.597145 324.571028 
L 414.818809 324.028381 
L 415.483802 324.028381 
L 415.705466 324.571028 
L 416.148794 324.571028 
L 416.370459 324.028381 
L 416.813787 324.028381 
L 417.035451 323.485733 
L 417.922108 323.485733 
L 418.143772 324.028381 
L 418.365436 323.485733 
L 418.808764 323.485733 
L 419.030428 322.943086 
L 419.252093 322.943086 
L 419.473757 323.485733 
L 421.690398 323.485733 
L 421.912062 322.943086 
L 423.242047 322.943086 
L 423.463711 322.400438 
L 423.685376 322.400438 
L 423.90704 322.943086 
L 424.350368 322.943086 
L 424.572032 322.400438 
L 425.458689 322.400438 
L 425.680353 321.857791 
L 426.56701 321.857791 
L 426.788674 322.400438 
L 427.010338 321.857791 
L 427.232002 322.400438 
L 427.453666 322.400438 
L 427.67533 321.857791 
L 431.886949 321.857791 
L 432.108613 321.315143 
L 432.773606 321.315143 
L 432.99527 320.772496 
L 434.325255 320.772496 
L 434.546919 320.229848 
L 434.768583 320.229848 
L 434.990247 320.772496 
L 436.098568 320.772496 
L 436.320232 320.229848 
L 438.31521 320.229848 
L 438.536874 319.687201 
L 438.758538 319.687201 
L 438.980202 320.229848 
L 439.866859 320.229848 
L 440.088523 319.687201 
L 440.310187 320.229848 
L 440.753515 320.229848 
L 440.97518 319.687201 
L 443.191821 319.687201 
L 443.413485 319.144553 
L 446.295119 319.144553 
L 446.516783 319.687201 
L 446.738448 319.144553 
L 446.960112 319.687201 
L 447.181776 319.144553 
L 448.068433 319.144553 
L 448.290097 319.687201 
L 448.955089 319.687201 
L 449.176753 319.144553 
L 450.06341 319.144553 
L 450.285074 318.601906 
L 450.728402 318.601906 
L 450.950067 318.059258 
L 451.171731 318.059258 
L 451.393395 318.601906 
L 452.945044 318.601906 
L 453.166708 319.144553 
L 453.831701 319.144553 
L 454.053365 318.601906 
L 456.713335 318.601906 
L 456.934999 318.059258 
L 457.156663 318.601906 
L 458.929976 318.601906 
L 459.15164 319.144553 
L 459.816633 319.144553 
L 460.038297 319.687201 
L 461.368282 319.687201 
L 461.589946 319.144553 
L 462.476603 319.144553 
L 462.698267 319.687201 
L 462.919931 319.144553 
L 463.806587 319.144553 
L 464.028252 318.601906 
L 464.249916 319.144553 
L 465.136572 319.144553 
L 465.358237 319.687201 
L 473.116482 319.687201 
L 473.338146 320.229848 
L 474.446467 320.229848 
L 474.668131 320.772496 
L 474.889795 320.772496 
L 475.111459 320.229848 
L 475.333123 320.229848 
L 475.554788 320.772496 
L 475.998116 320.772496 
L 476.21978 320.229848 
L 476.884773 320.229848 
L 477.106437 320.772496 
L 478.214757 320.772496 
L 478.436422 321.315143 
L 478.87975 321.315143 
L 479.101414 321.857791 
L 479.323078 321.857791 
L 479.544742 321.315143 
L 480.209735 321.315143 
L 480.431399 320.772496 
L 480.653063 320.772496 
L 480.874727 321.315143 
L 481.096391 321.315143 
L 481.318056 320.772496 
L 481.53972 320.772496 
L 481.761384 321.315143 
L 481.983048 320.772496 
L 482.204712 321.315143 
L 482.869705 321.315143 
L 483.091369 321.857791 
L 483.313033 321.857791 
L 483.534697 321.315143 
L 483.756361 321.857791 
L 484.19969 321.857791 
L 484.421354 321.315143 
L 484.643018 321.857791 
L 484.864682 321.857791 
L 485.086346 322.400438 
L 485.751339 322.400438 
L 485.973003 321.857791 
L 487.746316 321.857791 
L 487.96798 322.400438 
L 489.076301 322.400438 
L 489.297965 322.943086 
L 489.741293 322.943086 
L 489.962958 322.400438 
L 490.184622 322.943086 
L 492.179599 322.943086 
L 492.401263 323.485733 
L 492.622927 323.485733 
L 492.844592 322.943086 
L 493.066256 323.485733 
L 493.509584 323.485733 
L 493.731248 322.943086 
L 494.396241 322.943086 
L 494.617905 323.485733 
L 495.282897 323.485733 
L 495.504561 324.028381 
L 496.612882 324.028381 
L 496.834546 323.485733 
L 497.056211 324.028381 
L 497.942867 324.028381 
L 498.164531 324.571028 
L 499.051188 324.571028 
L 499.272852 325.113676 
L 499.494516 324.571028 
L 500.824501 324.571028 
L 501.046165 325.113676 
L 501.267829 325.113676 
L 501.489494 324.571028 
L 501.932822 324.571028 
L 502.154486 325.113676 
L 502.597814 325.113676 
L 502.819479 324.571028 
L 503.041143 325.113676 
L 503.706135 325.113676 
L 503.927799 325.656323 
L 504.814456 325.656323 
L 505.03612 325.113676 
L 505.257784 325.656323 
L 507.031097 325.656323 
L 507.252762 326.198971 
L 507.474426 326.198971 
L 507.69609 325.656323 
L 507.917754 326.198971 
L 508.361082 326.198971 
L 508.582747 325.656323 
L 508.804411 326.198971 
L 510.134396 326.198971 
L 510.35606 326.741618 
L 510.577724 326.741618 
L 510.799388 326.198971 
L 511.021052 326.741618 
L 514.567679 326.741618 
L 514.789343 327.284266 
L 519.000962 327.284266 
L 519.222626 327.826913 
L 521.217603 327.826913 
L 521.439267 328.369561 
L 521.660932 327.826913 
L 522.10426 327.826913 
L 522.325924 328.369561 
L 524.099237 328.369561 
L 524.320901 328.912208 
L 524.76423 328.912208 
L 524.985894 329.454856 
L 529.197513 329.454856 
L 529.419177 328.912208 
L 529.862505 328.912208 
L 530.084169 329.454856 
L 531.635819 329.454856 
L 531.857483 329.997503 
L 532.522475 329.997503 
L 532.744139 329.454856 
L 535.404109 329.454856 
L 535.625773 329.997503 
L 537.177422 329.997503 
L 537.399087 330.540151 
L 537.620751 330.540151 
L 537.842415 329.997503 
L 538.064079 329.997503 
L 538.285743 330.540151 
L 538.507407 329.997503 
L 539.837392 329.997503 
L 540.059056 330.540151 
L 540.280721 329.997503 
L 541.610705 329.997503 
L 541.83237 329.454856 
L 542.054034 329.997503 
L 543.162355 329.997503 
L 543.384019 330.540151 
L 545.157332 330.540151 
L 545.378996 329.997503 
L 545.60066 330.540151 
L 545.822324 330.540151 
L 546.043989 329.997503 
L 546.265653 330.540151 
L 546.708981 330.540151 
L 546.930645 329.997503 
L 547.152309 327.826913 
L 547.373973 328.369561 
L 547.595638 328.369561 
L 547.817302 329.454856 
L 548.703958 329.454856 
L 548.925623 329.997503 
L 551.142264 329.997503 
L 551.363928 330.540151 
L 551.585592 329.997503 
L 551.807257 330.540151 
L 552.028921 330.540151 
L 552.250585 329.997503 
L 553.358906 329.997503 
L 553.58057 330.540151 
L 554.467226 330.540151 
L 554.688891 329.997503 
L 555.132219 329.997503 
L 555.353883 330.540151 
L 555.575547 329.997503 
L 555.797211 330.540151 
L 556.018875 330.540151 
L 556.24054 329.997503 
L 556.462204 330.540151 
L 561.782143 330.540151 
L 562.003808 329.997503 
L 566.880419 329.997503 
L 567.102083 329.454856 
L 567.98874 329.454856 
L 568.210404 329.997503 
L 570.64871 329.997503 
L 570.870374 330.540151 
L 571.092038 329.997503 
L 572.865351 329.997503 
L 573.087015 330.540151 
L 573.308679 329.997503 
L 574.638664 329.997503 
L 574.860329 330.540151 
L 575.525321 330.540151 
L 575.746985 331.082799 
L 575.968649 330.540151 
L 577.520298 330.540151 
L 577.741963 331.082799 
L 577.963627 330.540151 
L 578.185291 331.082799 
L 578.406955 330.540151 
L 578.850283 330.540151 
L 579.071947 329.997503 
L 579.958604 329.997503 
L 580.180268 330.540151 
L 580.401932 329.997503 
L 581.510253 329.997503 
L 581.731917 329.454856 
L 582.39691 329.454856 
L 582.618574 329.997503 
L 582.840238 329.997503 
L 583.061902 329.454856 
L 583.283566 329.997503 
L 584.835215 329.997503 
L 585.05688 330.540151 
L 585.500208 330.540151 
L 585.721872 329.997503 
L 585.943536 330.540151 
L 586.1652 329.997503 
L 592.150133 329.997503 
L 592.371797 329.454856 
L 592.593461 329.997503 
L 593.701782 329.997503 
L 593.923446 329.454856 
L 594.14511 329.454856 
L 594.366774 329.997503 
L 594.588438 329.997503 
L 594.810102 327.826913 
L 595.031767 328.369561 
L 595.253431 327.826913 
L 595.475095 328.369561 
L 595.696759 328.369561 
L 595.918423 328.912208 
L 597.913401 328.912208 
L 598.135065 329.997503 
L 598.356729 329.454856 
L 598.578393 329.997503 
L 598.800057 328.912208 
L 601.903355 328.912208 
L 602.125019 329.454856 
L 602.790012 329.454856 
L 603.011676 328.912208 
L 604.341661 328.912208 
L 604.563325 328.369561 
L 604.784989 328.912208 
L 605.228318 328.912208 
L 605.449982 328.369561 
L 607.223295 328.369561 
L 607.444959 328.912208 
L 607.666623 328.369561 
L 608.331616 328.369561 
L 608.55328 327.826913 
L 608.774944 327.826913 
L 608.996608 328.369561 
L 615.424869 328.369561 
L 615.646533 327.826913 
L 617.419846 327.826913 
L 617.64151 327.284266 
L 618.749831 327.284266 
L 618.971495 326.741618 
L 619.193159 327.284266 
L 619.414823 327.284266 
L 619.636488 326.741618 
L 621.631465 326.741618 
L 621.853129 326.198971 
L 624.956427 326.198971 
L 625.178091 325.656323 
L 626.286412 325.656323 
L 626.508076 325.113676 
L 626.729741 325.656323 
L 627.394733 325.656323 
L 627.616397 325.113676 
L 628.503054 325.113676 
L 628.724718 324.571028 
L 629.833039 324.571028 
L 630.054703 324.028381 
L 633.379665 324.028381 
L 633.601329 323.485733 
L 633.822993 323.485733 
L 634.044658 324.028381 
L 634.266322 323.485733 
L 637.591284 323.485733 
L 637.812948 322.943086 
L 638.256277 322.943086 
L 638.477941 323.485733 
L 638.699605 322.943086 
L 639.807926 322.943086 
L 640.02959 322.400438 
L 640.251254 322.943086 
L 640.472918 322.400438 
L 640.916246 322.400438 
L 641.137911 321.857791 
L 642.024567 321.857791 
L 642.246231 321.315143 
L 642.68956 321.315143 
L 642.911224 321.857791 
L 643.576216 321.857791 
L 643.79788 321.315143 
L 644.684537 321.315143 
L 644.906201 320.772496 
L 645.127865 321.315143 
L 645.349529 321.315143 
L 645.571194 320.772496 
L 646.679514 320.772496 
L 646.901179 320.229848 
L 647.566171 320.229848 
L 647.787835 319.687201 
L 648.009499 319.687201 
L 648.231163 319.144553 
L 648.674492 319.144553 
L 648.896156 319.687201 
L 649.11782 319.144553 
L 650.004477 319.144553 
L 650.226141 318.601906 
L 652.221118 318.601906 
L 652.442782 318.059258 
L 653.329439 318.059258 
L 653.551103 317.516611 
L 653.772767 317.516611 
L 653.994431 318.059258 
L 654.216096 317.516611 
L 654.43776 317.516611 
L 654.659424 318.059258 
L 654.881088 317.516611 
L 655.54608 317.516611 
L 655.767745 318.059258 
L 655.989409 317.516611 
L 657.984386 317.516611 
L 658.20605 316.973963 
L 658.649379 316.973963 
L 658.871043 316.431315 
L 660.422692 316.431315 
L 660.644356 315.888668 
L 661.309348 315.888668 
L 661.531013 316.431315 
L 661.752677 315.888668 
L 662.639333 315.888668 
L 662.860998 316.431315 
L 663.082662 315.888668 
L 665.077639 315.888668 
L 665.299303 315.34602 
L 665.520967 315.888668 
L 667.072616 315.888668 
L 667.294281 315.34602 
L 668.180937 315.34602 
L 668.402601 314.803373 
L 668.84593 314.803373 
L 669.067594 315.34602 
L 669.289258 314.803373 
L 669.510922 315.34602 
L 670.397579 315.34602 
L 670.619243 314.803373 
L 671.949228 314.803373 
L 672.170892 315.34602 
L 672.392556 314.803373 
L 672.61422 314.803373 
L 672.835884 315.34602 
L 673.057549 315.34602 
L 673.279213 314.803373 
L 674.387534 314.803373 
L 674.609198 314.260725 
L 674.830862 314.803373 
L 676.160847 314.803373 
L 676.382511 314.260725 
L 676.604175 314.260725 
L 676.825839 314.803373 
L 677.490832 314.803373 
L 677.712496 315.34602 
L 678.820817 315.34602 
L 679.042481 314.803373 
L 679.264145 315.34602 
L 681.259122 315.34602 
L 681.480786 314.803373 
L 681.924115 314.803373 
L 682.145779 315.34602 
L 682.367443 315.34602 
L 682.589107 314.803373 
L 682.810771 315.34602 
L 683.475764 315.34602 
L 683.697428 315.888668 
L 685.91407 315.888668 
L 686.135734 315.34602 
L 686.579062 315.34602 
L 686.800726 315.888668 
L 690.569017 315.888668 
L 690.790681 315.34602 
L 691.012345 315.34602 
L 691.234009 315.888668 
L 693.228987 315.888668 
L 693.450651 316.431315 
L 693.893979 316.431315 
L 694.115643 316.973963 
L 694.337307 316.431315 
L 694.558972 316.431315 
L 694.780636 316.973963 
L 695.0023 316.431315 
L 695.223964 316.431315 
L 695.445628 316.973963 
L 696.775613 316.973963 
L 696.997277 317.516611 
L 698.548926 317.516611 
L 698.77059 318.059258 
L 698.992255 318.059258 
L 699.213919 318.601906 
L 699.878911 318.601906 
L 700.100575 319.144553 
L 701.652224 319.144553 
L 701.873889 319.687201 
L 702.095553 319.144553 
L 702.317217 319.687201 
L 703.425538 319.687201 
L 703.647202 320.229848 
L 703.868866 319.687201 
L 704.755523 319.687201 
L 704.977187 320.229848 
L 705.420515 320.229848 
L 705.642179 320.772496 
L 707.193828 320.772496 
L 707.415492 321.315143 
L 708.967142 321.315143 
L 709.188806 321.857791 
L 709.853798 321.857791 
L 710.075462 322.400438 
L 710.962119 322.400438 
L 711.183783 322.943086 
L 712.292104 322.943086 
L 712.513768 323.485733 
L 713.400425 323.485733 
L 713.622089 324.028381 
L 714.508745 324.028381 
L 714.73041 323.485733 
L 714.952074 324.028381 
L 715.173738 323.485733 
L 715.395402 324.028381 
L 717.168715 324.028381 
L 717.390379 324.571028 
L 717.612044 324.028381 
L 717.833708 324.571028 
L 718.720364 324.571028 
L 718.942028 325.113676 
L 719.385357 325.113676 
L 719.607021 325.656323 
L 720.272013 325.656323 
L 720.493678 326.198971 
L 720.715342 325.656323 
L 720.937006 326.198971 
L 721.601998 326.198971 
L 721.823662 326.741618 
L 722.045327 326.741618 
L 722.266991 326.198971 
L 722.488655 326.741618 
L 722.931983 326.741618 
L 723.153647 327.284266 
L 723.375312 327.284266 
L 723.596976 327.826913 
L 724.705296 327.826913 
L 724.926961 328.369561 
L 725.148625 327.826913 
L 725.370289 328.369561 
L 726.921938 328.369561 
L 727.143602 328.912208 
L 728.030259 328.912208 
L 728.251923 329.454856 
L 728.473587 328.912208 
L 728.695251 329.454856 
L 729.360244 329.454856 
L 729.581908 329.997503 
L 730.468564 329.997503 
L 730.690229 330.540151 
L 731.355221 330.540151 
L 731.576885 331.082799 
L 731.798549 330.540151 
L 732.020214 331.082799 
L 732.241878 331.082799 
L 732.463542 331.625446 
L 733.128534 331.625446 
L 733.350198 332.168094 
L 736.231832 332.168094 
L 736.453497 332.710741 
L 737.118489 332.710741 
L 737.340153 333.253389 
L 737.561817 332.710741 
L 738.005146 332.710741 
L 738.22681 333.253389 
L 739.113466 333.253389 
L 739.335131 333.796036 
L 740.000123 333.796036 
L 740.221787 333.253389 
L 740.443451 333.796036 
L 740.665116 333.796036 
L 740.88678 333.253389 
L 741.108444 333.796036 
L 741.9951 333.796036 
L 742.216765 334.338684 
L 742.438429 333.796036 
L 742.660093 334.338684 
L 743.103421 334.338684 
L 743.325085 334.881331 
L 744.433406 334.881331 
L 744.65507 335.423979 
L 744.876734 334.881331 
L 745.098399 335.423979 
L 749.088353 335.423979 
L 749.310018 335.966626 
L 750.640002 335.966626 
L 750.861667 336.509274 
L 751.083331 335.966626 
L 751.304995 335.966626 
L 751.526659 336.509274 
L 754.408293 336.509274 
L 754.629957 337.051921 
L 754.851621 336.509274 
L 755.073286 336.509274 
L 755.29495 337.051921 
L 756.181606 337.051921 
L 756.40327 336.509274 
L 756.624935 337.051921 
L 757.289927 337.051921 
L 757.511591 337.594569 
L 757.733255 337.051921 
L 757.95492 337.594569 
L 758.398248 337.594569 
L 758.619912 338.137216 
L 758.841576 337.594569 
L 759.506569 337.594569 
L 759.728233 338.137216 
L 759.949897 338.137216 
L 759.949897 338.137216 
" clip-path="url(#pda3f76eb28)" style="fill: none; stroke: #ff7f0e; stroke-width: 1.1; stroke-linecap: square"/>
   </g>
   <g id="line2d_29">
    <path clip-path="url(#pda3f76eb28)" style="fill: none; stroke-dasharray: 3.33,1.44; stroke-dashoffset: 0; stroke: #1f77b4; stroke-width: 0.9"/>
   </g>
   <g id="patch_3">
    <path d="M 61.707813 366.84327 
L 61.707813 22.370625 
" style="fill: none; stroke: #000000; stroke-width: 0.8; stroke-linejoin: miter; stroke-linecap: square"/>
   </g>
   <g id="patch_4">
    <path d="M 793.19952 366.84327 
L 793.19952 22.370625 
" style="fill: none; stroke: #000000; stroke-width: 0.8; stroke-linejoin: miter; stroke-linecap: square"/>
   </g>
   <g id="patch_5">
    <path d="M 61.707813 366.84327 
L 793.19952 366.84327 
" style="fill: none; stroke: #000000; stroke-width: 0.8; stroke-linejoin: miter; stroke-linecap: square"/>
   </g>
   <g id="patch_6">
    <path d="M 61.707813 22.370625 
L 793.19952 22.370625 
" style="fill: none; stroke: #000000; stroke-width: 0.8; stroke-linejoin: miter; stroke-linecap: square"/>
   </g>
   <g id="text_16">
    <text style="font-size: 12px; font-family: 'DejaVu Sans', 'Bitstream Vera Sans', 'Computer Modern Sans Serif', 'Lucida Grande', 'Verdana', 'Geneva', 'Lucid', 'Arial', 'Helvetica', 'Avant Garde', sans-serif; text-anchor: middle" x="427.453666" y="16.370625" transform="rotate(-0 427.453666 16.370625)">ptp_multislave_log_4 | PI output | samples 7000..10000</text>
   </g>
   <g id="legend_1">
    <g id="patch_7">
     <path d="M 721.64952 59.726875 
L 786.19952 59.726875 
Q 788.19952 59.726875 788.19952 57.726875 
L 788.19952 29.370625 
Q 788.19952 27.370625 786.19952 27.370625 
L 721.64952 27.370625 
Q 719.64952 27.370625 719.64952 29.370625 
L 719.64952 57.726875 
Q 719.64952 59.726875 721.64952 59.726875 
z
" style="fill: #ffffff; opacity: 0.8; stroke: #cccccc; stroke-linejoin: miter"/>
    </g>
    <g id="line2d_30">
     <path d="M 723.64952 35.469062 
L 733.64952 35.469062 
L 743.64952 35.469062 
" style="fill: none; stroke: #1f77b4; stroke-width: 1.1; stroke-linecap: square"/>
    </g>
    <g id="text_17">
     <text style="font-size: 10px; font-family: 'DejaVu Sans', 'Bitstream Vera Sans', 'Computer Modern Sans Serif', 'Lucida Grande', 'Verdana', 'Geneva', 'Lucid', 'Arial', 'Helvetica', 'Avant Garde', sans-serif; text-anchor: start" x="751.64952" y="38.969062" transform="rotate(-0 751.64952 38.969062)">slave1</text>
    </g>
    <g id="line2d_31">
     <path d="M 723.64952 50.147187 
L 733.64952 50.147187 
L 743.64952 50.147187 
" style="fill: none; stroke: #ff7f0e; stroke-width: 1.1; stroke-linecap: square"/>
    </g>
    <g id="text_18">
     <text style="font-size: 10px; font-family: 'DejaVu Sans', 'Bitstream Vera Sans', 'Computer Modern Sans Serif', 'Lucida Grande', 'Verdana', 'Geneva', 'Lucid', 'Arial', 'Helvetica', 'Avant Garde', sans-serif; text-anchor: start" x="751.64952" y="53.647187" transform="rotate(-0 751.64952 53.647187)">slave2</text>
    </g>
   </g>
  </g>
 </g>
 <defs>
  <clipPath id="pda3f76eb28">
   <rect x="61.707813" y="22.370625" width="731.491707" height="344.472645"/>
  </clipPath>
 </defs>
</svg>
