<?xml version="1.0" encoding="utf-8" standalone="no"?>
<!DOCTYPE svg PUBLIC "-//W3C//DTD SVG 1.1//EN"
  "http://www.w3.org/Graphics/SVG/1.1/DTD/svg11.dtd">
<svg xmlns:xlink="http://www.w3.org/1999/xlink" width="800.39952pt" height="404.39952pt" viewBox="0 0 800.39952 404.39952" xmlns="http://www.w3.org/2000/svg" version="1.1">
 <metadata>
  <rdf:RDF xmlns:dc="http://purl.org/dc/elements/1.1/" xmlns:cc="http://creativecommons.org/ns#" xmlns:rdf="http://www.w3.org/1999/02/22-rdf-syntax-ns#">
   <cc:Work>
    <dc:type rdf:resource="http://purl.org/dc/dcmitype/StillImage"/>
    <dc:date>2026-05-02T11:14:27.727930</dc:date>
    <dc:format>image/svg+xml</dc:format>
    <dc:creator>
     <cc:Agent>
      <dc:title>Matplotlib v3.10.7, https://matplotlib.org/</dc:title>
     </cc:Agent>
    </dc:creator>
   </cc:Work>
  </rdf:RDF>
 </metadata>
 <defs>
  <style type="text/css">*{stroke-linejoin: round; stroke-linecap: butt}</style>
 </defs>
 <g id="figure_1">
  <g id="patch_1">
   <path d="M 0 404.39952 
L 800.39952 404.39952 
L 800.39952 -0 
L 0 -0 
z
" style="fill: #ffffff"/>
  </g>
  <g id="axes_1">
   <g id="patch_2">
    <path d="M 61.707813 366.84327 
L 793.19952 366.84327 
L 793.19952 22.370625 
L 61.707813 22.370625 
z
" style="fill: #ffffff"/>
   </g>
   <g id="matplotlib.axis_1">
    <g id="xtick_1">
     <g id="line2d_1">
      <path d="M 94.957436 366.84327 
L 94.957436 22.370625 
" clip-path="url(#pc477a1ce80)" style="fill: none; stroke: #b0b0b0; stroke-opacity: 0.35; stroke-width: 0.8; stroke-linecap: square"/>
     </g>
     <g id="line2d_2">
      <defs>
       <path id="m51625979e9" d="M 0 0 
L 0 3.5 
" style="stroke: #000000; stroke-width: 0.8"/>
      </defs>
      <g>
       <use xlink:href="#m51625979e9" x="94.957436" y="366.84327" style="stroke: #000000; stroke-width: 0.8"/>
      </g>
     </g>
     <g id="text_1">
      <text style="font-size: 10px; font-family: 'DejaVu Sans', 'Bitstream Vera Sans', 'Computer Modern Sans Serif', 'Lucida Grande', 'Verdana', 'Geneva', 'Lucid', 'Arial', 'Helvetica', 'Avant Garde', sans-serif; text-anchor: middle" x="94.957436" y="381.441707" transform="rotate(-0 94.957436 381.441707)">12000</text>
     </g>
    </g>
    <g id="xtick_2">
     <g id="line2d_3">
      <path d="M 205.789512 366.84327 
L 205.789512 22.370625 
" clip-path="url(#pc477a1ce80)" style="fill: none; stroke: #b0b0b0; stroke-opacity: 0.35; stroke-width: 0.8; stroke-linecap: square"/>
     </g>
     <g id="line2d_4">
      <g>
       <use xlink:href="#m51625979e9" x="205.789512" y="366.84327" style="stroke: #000000; stroke-width: 0.8"/>
      </g>
     </g>
     <g id="text_2">
      <text style="font-size: 10px; font-family: 'DejaVu Sans', 'Bitstream Vera Sans', 'Computer Modern Sans Serif', 'Lucida Grande', 'Verdana', 'Geneva', 'Lucid', 'Arial', 'Helvetica', 'Avant Garde', sans-serif; text-anchor: middle" x="205.789512" y="381.441707" transform="rotate(-0 205.789512 381.441707)">12500</text>
     </g>
    </g>
    <g id="xtick_3">
     <g id="line2d_5">
      <path d="M 316.621589 366.84327 
L 316.621589 22.370625 
" clip-path="url(#pc477a1ce80)" style="fill: none; stroke: #b0b0b0; stroke-opacity: 0.35; stroke-width: 0.8; stroke-linecap: square"/>
     </g>
     <g id="line2d_6">
      <g>
       <use xlink:href="#m51625979e9" x="316.621589" y="366.84327" style="stroke: #000000; stroke-width: 0.8"/>
      </g>
     </g>
     <g id="text_3">
      <text style="font-size: 10px; font-family: 'DejaVu Sans', 'Bitstream Vera Sans', 'Computer Modern Sans Serif', 'Lucida Grande', 'Verdana', 'Geneva', 'Lucid', 'Arial', 'Helvetica', 'Avant Garde', sans-serif; text-anchor: middle" x="316.621589" y="381.441707" transform="rotate(-0 316.621589 381.441707)">13000</text>
     </g>
    </g>
    <g id="xtick_4">
     <g id="line2d_7">
      <path d="M 427.453666 366.84327 
L 427.453666 22.370625 
" clip-path="url(#pc477a1ce80)" style="fill: none; stroke: #b0b0b0; stroke-opacity: 0.35; stroke-width: 0.8; stroke-linecap: square"/>
     </g>
     <g id="line2d_8">
      <g>
       <use xlink:href="#m51625979e9" x="427.453666" y="366.84327" style="stroke: #000000; stroke-width: 0.8"/>
      </g>
     </g>
     <g id="text_4">
      <text style="font-size: 10px; font-family: 'DejaVu Sans', 'Bitstream Vera Sans', 'Computer Modern Sans Serif', 'Lucida Grande', 'Verdana', 'Geneva', 'Lucid', 'Arial', 'Helvetica', 'Avant Garde', sans-serif; text-anchor: middle" x="427.453666" y="381.441707" transform="rotate(-0 427.453666 381.441707)">13500</text>
     </g>
    </g>
    <g id="xtick_5">
     <g id="line2d_9">
      <path d="M 538.285743 366.84327 
L 538.285743 22.370625 
" clip-path="url(#pc477a1ce80)" style="fill: none; stroke: #b0b0b0; stroke-opacity: 0.35; stroke-width: 0.8; stroke-linecap: square"/>
     </g>
     <g id="line2d_10">
      <g>
       <use xlink:href="#m51625979e9" x="538.285743" y="366.84327" style="stroke: #000000; stroke-width: 0.8"/>
      </g>
     </g>
     <g id="text_5">
      <text style="font-size: 10px; font-family: 'DejaVu Sans', 'Bitstream Vera Sans', 'Computer Modern Sans Serif', 'Lucida Grande', 'Verdana', 'Geneva', 'Lucid', 'Arial', 'Helvetica', 'Avant Garde', sans-serif; text-anchor: middle" x="538.285743" y="381.441707" transform="rotate(-0 538.285743 381.441707)">14000</text>
     </g>
    </g>
    <g id="xtick_6">
     <g id="line2d_11">
      <path d="M 649.11782 366.84327 
L 649.11782 22.370625 
" clip-path="url(#pc477a1ce80)" style="fill: none; stroke: #b0b0b0; stroke-opacity: 0.35; stroke-width: 0.8; stroke-linecap: square"/>
     </g>
     <g id="line2d_12">
      <g>
       <use xlink:href="#m51625979e9" x="649.11782" y="366.84327" style="stroke: #000000; stroke-width: 0.8"/>
      </g>
     </g>
     <g id="text_6">
      <text style="font-size: 10px; font-family: 'DejaVu Sans', 'Bitstream Vera Sans', 'Computer Modern Sans Serif', 'Lucida Grande', 'Verdana', 'Geneva', 'Lucid', 'Arial', 'Helvetica', 'Avant Garde', sans-serif; text-anchor: middle" x="649.11782" y="381.441707" transform="rotate(-0 649.11782 381.441707)">14500</text>
     </g>
    </g>
    <g id="xtick_7">
     <g id="line2d_13">
      <path d="M 759.949897 366.84327 
L 759.949897 22.370625 
" clip-path="url(#pc477a1ce80)" style="fill: none; stroke: #b0b0b0; stroke-opacity: 0.35; stroke-width: 0.8; stroke-linecap: square"/>
     </g>
     <g id="line2d_14">
      <g>
       <use xlink:href="#m51625979e9" x="759.949897" y="366.84327" style="stroke: #000000; stroke-width: 0.8"/>
      </g>
     </g>
     <g id="text_7">
      <text style="font-size: 10px; font-family: 'DejaVu Sans', 'Bitstream Vera Sans', 'Computer Modern Sans Serif', 'Lucida Grande', 'Verdana', 'Geneva', 'Lucid', 'Arial', 'Helvetica', 'Avant Garde', sans-serif; text-anchor: middle" x="759.949897" y="381.441707" transform="rotate(-0 759.949897 381.441707)">15000</text>
     </g>
    </g>
    <g id="text_8">
     <text style="font-size: 10px; font-family: 'DejaVu Sans', 'Bitstream Vera Sans', 'Computer Modern Sans Serif', 'Lucida Grande', 'Verdana', 'Geneva', 'Lucid', 'Arial', 'Helvetica', 'Avant Garde', sans-serif; text-anchor: middle" x="427.453666" y="395.119832" transform="rotate(-0 427.453666 395.119832)">Sample</text>
    </g>
   </g>
   <g id="matplotlib.axis_2">
    <g id="ytick_1">
     <g id="line2d_15">
      <path d="M 61.707813 330.490112 
L 793.19952 330.490112 
" clip-path="url(#pc477a1ce80)" style="fill: none; stroke: #b0b0b0; stroke-opacity: 0.35; stroke-width: 0.8; stroke-linecap: square"/>
     </g>
     <g id="line2d_16">
      <defs>
       <path id="m029432a92c" d="M 0 0 
L -3.5 0 
" style="stroke: #000000; stroke-width: 0.8"/>
      </defs>
      <g>
       <use xlink:href="#m029432a92c" x="61.707813" y="330.490112" style="stroke: #000000; stroke-width: 0.8"/>
      </g>
     </g>
     <g id="text_9">
      <text style="font-size: 10px; font-family: 'DejaVu Sans', 'Bitstream Vera Sans', 'Computer Modern Sans Serif', 'Lucida Grande', 'Verdana', 'Geneva', 'Lucid', 'Arial', 'Helvetica', 'Avant Garde', sans-serif; text-anchor: end" x="54.707813" y="334.289331" transform="rotate(-0 54.707813 334.289331)">−5300</text>
     </g>
    </g>
    <g id="ytick_2">
     <g id="line2d_17">
      <path d="M 61.707813 271.666231 
L 793.19952 271.666231 
" clip-path="url(#pc477a1ce80)" style="fill: none; stroke: #b0b0b0; stroke-opacity: 0.35; stroke-width: 0.8; stroke-linecap: square"/>
     </g>
     <g id="line2d_18">
      <g>
       <use xlink:href="#m029432a92c" x="61.707813" y="271.666231" style="stroke: #000000; stroke-width: 0.8"/>
      </g>
     </g>
     <g id="text_10">
      <text style="font-size: 10px; font-family: 'DejaVu Sans', 'Bitstream Vera Sans', 'Computer Modern Sans Serif', 'Lucida Grande', 'Verdana', 'Geneva', 'Lucid', 'Arial', 'Helvetica', 'Avant Garde', sans-serif; text-anchor: end" x="54.707813" y="275.46545" transform="rotate(-0 54.707813 275.46545)">−5200</text>
     </g>
    </g>
    <g id="ytick_3">
     <g id="line2d_19">
      <path d="M 61.707813 212.84235 
L 793.19952 212.84235 
" clip-path="url(#pc477a1ce80)" style="fill: none; stroke: #b0b0b0; stroke-opacity: 0.35; stroke-width: 0.8; stroke-linecap: square"/>
     </g>
     <g id="line2d_20">
      <g>
       <use xlink:href="#m029432a92c" x="61.707813" y="212.84235" style="stroke: #000000; stroke-width: 0.8"/>
      </g>
     </g>
     <g id="text_11">
      <text style="font-size: 10px; font-family: 'DejaVu Sans', 'Bitstream Vera Sans', 'Computer Modern Sans Serif', 'Lucida Grande', 'Verdana', 'Geneva', 'Lucid', 'Arial', 'Helvetica', 'Avant Garde', sans-serif; text-anchor: end" x="54.707813" y="216.641569" transform="rotate(-0 54.707813 216.641569)">−5100</text>
     </g>
    </g>
    <g id="ytick_4">
     <g id="line2d_21">
      <path d="M 61.707813 154.01847 
L 793.19952 154.01847 
" clip-path="url(#pc477a1ce80)" style="fill: none; stroke: #b0b0b0; stroke-opacity: 0.35; stroke-width: 0.8; stroke-linecap: square"/>
     </g>
     <g id="line2d_22">
      <g>
       <use xlink:href="#m029432a92c" x="61.707813" y="154.01847" style="stroke: #000000; stroke-width: 0.8"/>
      </g>
     </g>
     <g id="text_12">
      <text style="font-size: 10px; font-family: 'DejaVu Sans', 'Bitstream Vera Sans', 'Computer Modern Sans Serif', 'Lucida Grande', 'Verdana', 'Geneva', 'Lucid', 'Arial', 'Helvetica', 'Avant Garde', sans-serif; text-anchor: end" x="54.707813" y="157.817689" transform="rotate(-0 54.707813 157.817689)">−5000</text>
     </g>
    </g>
    <g id="ytick_5">
     <g id="line2d_23">
      <path d="M 61.707813 95.194589 
L 793.19952 95.194589 
" clip-path="url(#pc477a1ce80)" style="fill: none; stroke: #b0b0b0; stroke-opacity: 0.35; stroke-width: 0.8; stroke-linecap: square"/>
     </g>
     <g id="line2d_24">
      <g>
       <use xlink:href="#m029432a92c" x="61.707813" y="95.194589" style="stroke: #000000; stroke-width: 0.8"/>
      </g>
     </g>
     <g id="text_13">
      <text style="font-size: 10px; font-family: 'DejaVu Sans', 'Bitstream Vera Sans', 'Computer Modern Sans Serif', 'Lucida Grande', 'Verdana', 'Geneva', 'Lucid', 'Arial', 'Helvetica', 'Avant Garde', sans-serif; text-anchor: end" x="54.707813" y="98.993808" transform="rotate(-0 54.707813 98.993808)">−4900</text>
     </g>
    </g>
    <g id="ytick_6">
     <g id="line2d_25">
      <path d="M 61.707813 36.370709 
L 793.19952 36.370709 
" clip-path="url(#pc477a1ce80)" style="fill: none; stroke: #b0b0b0; stroke-opacity: 0.35; stroke-width: 0.8; stroke-linecap: square"/>
     </g>
     <g id="line2d_26">
      <g>
       <use xlink:href="#m029432a92c" x="61.707813" y="36.370709" style="stroke: #000000; stroke-width: 0.8"/>
      </g>
     </g>
     <g id="text_14">
      <text style="font-size: 10px; font-family: 'DejaVu Sans', 'Bitstream Vera Sans', 'Computer Modern Sans Serif', 'Lucida Grande', 'Verdana', 'Geneva', 'Lucid', 'Arial', 'Helvetica', 'Avant Garde', sans-serif; text-anchor: end" x="54.707813" y="40.169927" transform="rotate(-0 54.707813 40.169927)">−4800</text>
     </g>
    </g>
    <g id="text_15">
     <text style="font-size: 10px; font-family: 'DejaVu Sans', 'Bitstream Vera Sans', 'Computer Modern Sans Serif', 'Lucida Grande', 'Verdana', 'Geneva', 'Lucid', 'Arial', 'Helvetica', 'Avant Garde', sans-serif; text-anchor: middle" x="14.798438" y="194.606947" transform="rotate(-90 14.798438 194.606947)">PI output, ppb</text>
    </g>
   </g>
   <g id="line2d_27">
    <path d="M 94.957436 67.547365 
L 95.844092 67.547365 
L 96.065756 68.135604 
L 96.28742 67.547365 
L 96.509085 68.135604 
L 96.730749 68.135604 
L 96.952413 67.547365 
L 97.174077 67.547365 
L 97.395741 68.135604 
L 97.617405 67.547365 
L 98.504062 67.547365 
L 98.725726 66.959127 
L 100.055711 66.959127 
L 100.277375 66.370888 
L 103.380673 66.370888 
L 103.602338 65.782649 
L 103.824002 66.370888 
L 104.045666 65.782649 
L 104.26733 65.782649 
L 104.488994 65.19441 
L 106.483972 65.19441 
L 106.705636 64.606171 
L 109.808934 64.606171 
L 110.030598 65.19441 
L 110.252262 64.606171 
L 113.133896 64.606171 
L 113.35556 65.19441 
L 113.577224 64.606171 
L 115.128874 64.606171 
L 115.350538 65.19441 
L 120.005485 65.19441 
L 120.227149 64.606171 
L 120.670477 64.606171 
L 120.892142 64.017932 
L 121.557134 64.017932 
L 121.778798 63.429694 
L 122.000462 63.429694 
L 122.222126 64.017932 
L 122.443791 64.017932 
L 122.665455 63.429694 
L 123.773776 63.429694 
L 123.99544 62.841455 
L 125.10376 62.841455 
L 125.325425 62.253216 
L 125.547089 62.253216 
L 125.768753 61.664977 
L 127.985394 61.664977 
L 128.207059 61.076738 
L 128.650387 61.076738 
L 129.093715 59.900261 
L 129.537044 59.900261 
L 129.758708 59.312022 
L 130.202036 59.312022 
L 130.4237 58.723783 
L 130.867028 58.723783 
L 131.088693 58.135544 
L 132.640342 58.135544 
L 132.862006 57.547306 
L 133.970327 57.547306 
L 134.191991 56.959067 
L 135.300312 56.959067 
L 135.521976 56.370828 
L 136.408632 56.370828 
L 136.630296 56.959067 
L 136.851961 56.370828 
L 137.960281 56.370828 
L 138.181946 56.959067 
L 138.40361 56.370828 
L 140.620251 56.370828 
L 140.841915 55.782589 
L 141.06358 55.782589 
L 141.285244 56.370828 
L 141.506908 55.782589 
L 143.280221 55.782589 
L 143.501885 56.370828 
L 143.945214 56.370828 
L 144.166878 56.959067 
L 145.496863 56.959067 
L 145.718527 57.547306 
L 146.383519 57.547306 
L 146.826848 58.723783 
L 147.048512 58.723783 
L 147.270176 58.135544 
L 147.49184 58.723783 
L 147.713504 58.135544 
L 148.600161 58.135544 
L 148.821825 57.547306 
L 149.486817 57.547306 
L 149.708482 56.959067 
L 150.15181 56.959067 
L 150.373474 57.547306 
L 150.595138 57.547306 
L 150.816802 56.959067 
L 151.481795 56.959067 
L 151.703459 56.370828 
L 153.033444 56.370828 
L 153.255108 55.782589 
L 154.806757 55.782589 
L 155.028421 55.19435 
L 155.250085 55.782589 
L 155.47175 55.782589 
L 155.693414 55.19435 
L 156.801734 55.19435 
L 157.023399 54.606112 
L 157.245063 55.19435 
L 157.466727 55.19435 
L 157.688391 54.606112 
L 158.353384 54.606112 
L 158.575048 54.017873 
L 158.796712 54.017873 
L 159.018376 54.606112 
L 159.461704 54.606112 
L 159.683368 54.017873 
L 163.008331 54.017873 
L 163.229995 54.606112 
L 163.451659 54.017873 
L 163.673323 54.606112 
L 164.116652 54.606112 
L 164.338316 54.017873 
L 165.003308 54.017873 
L 165.224972 54.606112 
L 167.21995 54.606112 
L 167.441614 55.19435 
L 167.663278 55.19435 
L 167.884942 54.606112 
L 168.106606 54.606112 
L 168.549935 55.782589 
L 168.993263 55.782589 
L 169.214927 56.370828 
L 169.658255 56.370828 
L 169.87992 55.782589 
L 170.101584 56.370828 
L 170.766576 56.370828 
L 170.98824 56.959067 
L 171.209904 56.959067 
L 171.431569 57.547306 
L 171.874897 57.547306 
L 172.318225 58.723783 
L 172.539889 58.135544 
L 172.983218 58.135544 
L 173.204882 58.723783 
L 173.869874 58.723783 
L 174.091538 59.312022 
L 175.421523 59.312022 
L 175.643188 58.723783 
L 175.864852 58.723783 
L 176.086516 59.312022 
L 177.194837 59.312022 
L 177.416501 59.900261 
L 177.638165 59.312022 
L 178.524822 59.312022 
L 178.746486 58.723783 
L 180.963127 58.723783 
L 181.184791 59.312022 
L 181.406456 59.312022 
L 181.62812 58.723783 
L 181.849784 59.312022 
L 182.071448 58.723783 
L 182.958105 58.723783 
L 183.179769 59.312022 
L 183.401433 59.312022 
L 183.623097 58.723783 
L 183.844761 59.312022 
L 184.066425 58.723783 
L 184.28809 59.312022 
L 185.39641 59.312022 
L 185.618074 59.900261 
L 186.504731 59.900261 
L 186.726395 59.312022 
L 187.834716 59.312022 
L 188.05638 59.900261 
L 188.499708 59.900261 
L 188.721373 60.4885 
L 188.943037 60.4885 
L 189.164701 61.076738 
L 190.051358 61.076738 
L 190.273022 61.664977 
L 192.267999 61.664977 
L 192.489663 62.253216 
L 193.154656 62.253216 
L 193.37632 62.841455 
L 193.597984 62.253216 
L 193.819648 62.253216 
L 194.041312 62.841455 
L 194.262976 62.841455 
L 194.484641 62.253216 
L 194.706305 62.841455 
L 195.149633 62.841455 
L 195.592961 64.017932 
L 196.03629 64.017932 
L 196.479618 65.19441 
L 196.701282 64.606171 
L 196.922946 65.19441 
L 197.14461 65.19441 
L 197.366275 65.782649 
L 198.69626 65.782649 
L 199.139588 66.959127 
L 199.582916 66.959127 
L 199.80458 67.547365 
L 201.799558 67.547365 
L 202.021222 68.135604 
L 202.686214 68.135604 
L 202.907878 67.547365 
L 203.129543 67.547365 
L 203.351207 68.135604 
L 203.572871 67.547365 
L 203.794535 68.135604 
L 204.016199 68.135604 
L 204.237863 68.723843 
L 205.567848 68.723843 
L 205.789512 69.312082 
L 206.011177 68.723843 
L 208.449482 68.723843 
L 208.671146 69.312082 
L 209.336139 69.312082 
L 209.557803 69.900321 
L 209.779467 69.312082 
L 210.001131 69.900321 
L 210.222796 69.312082 
L 210.44446 69.900321 
L 211.109452 69.900321 
L 211.331116 70.488559 
L 212.217773 70.488559 
L 212.439437 71.076798 
L 214.21275 71.076798 
L 214.434414 71.665037 
L 214.877743 71.665037 
L 215.099407 72.253276 
L 215.321071 71.665037 
L 215.764399 72.841515 
L 216.651056 72.841515 
L 216.87272 73.429753 
L 217.094384 73.429753 
L 217.316048 74.017992 
L 218.646033 74.017992 
L 219.089362 75.19447 
L 219.311026 75.19447 
L 219.53269 75.782709 
L 220.197682 75.782709 
L 220.419347 76.370947 
L 220.862675 76.370947 
L 221.084339 76.959186 
L 222.19266 76.959186 
L 222.414324 77.547425 
L 223.300981 77.547425 
L 223.522645 78.135664 
L 223.965973 78.135664 
L 224.187637 78.723903 
L 226.182615 78.723903 
L 226.404279 79.312141 
L 226.625943 78.723903 
L 227.5126 78.723903 
L 227.734264 78.135664 
L 227.955928 78.135664 
L 228.177592 78.723903 
L 228.399256 78.135664 
L 229.064249 78.135664 
L 229.285913 78.723903 
L 229.729241 78.723903 
L 229.950905 79.312141 
L 233.275868 79.312141 
L 233.497532 79.90038 
L 233.719196 79.312141 
L 233.94086 79.90038 
L 234.162524 79.90038 
L 234.384188 80.488619 
L 234.605852 80.488619 
L 234.827517 79.90038 
L 235.049181 80.488619 
L 235.714173 80.488619 
L 235.935837 81.076858 
L 238.374143 81.076858 
L 238.595807 81.665097 
L 238.817471 81.076858 
L 239.039136 81.665097 
L 239.482464 81.665097 
L 239.704128 82.253335 
L 240.590785 82.253335 
L 240.812449 82.841574 
L 241.92077 82.841574 
L 242.142434 83.429813 
L 242.807426 83.429813 
L 243.02909 84.018052 
L 243.915747 84.018052 
L 244.137411 84.606291 
L 244.359075 84.606291 
L 244.580739 85.19453 
L 244.802404 85.19453 
L 245.024068 84.606291 
L 245.467396 84.606291 
L 245.68906 85.19453 
L 245.910724 85.19453 
L 246.132388 84.606291 
L 246.575717 84.606291 
L 246.797381 84.018052 
L 247.462373 84.018052 
L 247.684038 83.429813 
L 248.34903 83.429813 
L 248.570694 82.841574 
L 249.457351 82.841574 
L 249.679015 82.253335 
L 250.565672 82.253335 
L 250.787336 81.665097 
L 251.230664 81.665097 
L 251.452328 81.076858 
L 254.333962 81.076858 
L 254.555626 80.488619 
L 254.77729 81.076858 
L 254.998955 80.488619 
L 255.220619 80.488619 
L 255.442283 79.90038 
L 256.107275 79.90038 
L 256.32894 79.312141 
L 257.880589 79.312141 
L 258.102253 78.723903 
L 260.09723 78.723903 
L 260.318894 78.135664 
L 260.983887 78.135664 
L 261.205551 77.547425 
L 261.427215 78.135664 
L 261.648879 77.547425 
L 264.087185 77.547425 
L 264.308849 78.135664 
L 264.530513 77.547425 
L 267.855476 77.547425 
L 268.07714 78.135664 
L 269.407125 78.135664 
L 269.850453 79.312141 
L 270.072117 78.723903 
L 270.293781 78.723903 
L 270.515445 78.135664 
L 272.288759 78.135664 
L 272.510423 77.547425 
L 273.175415 77.547425 
L 273.397079 76.959186 
L 273.618744 77.547425 
L 273.840408 76.959186 
L 274.5054 76.959186 
L 274.727064 76.370947 
L 275.170393 76.370947 
L 275.392057 75.782709 
L 275.613721 76.370947 
L 275.835385 75.782709 
L 276.057049 75.782709 
L 276.278713 75.19447 
L 277.608698 75.19447 
L 277.830362 74.606231 
L 278.495355 74.606231 
L 278.717019 74.017992 
L 279.382012 74.017992 
L 279.603676 73.429753 
L 280.047004 73.429753 
L 280.268668 72.841515 
L 281.376989 72.841515 
L 281.598653 72.253276 
L 283.150302 72.253276 
L 283.371966 72.841515 
L 283.59363 72.253276 
L 283.815295 72.253276 
L 284.036959 71.665037 
L 285.14528 71.665037 
L 285.366944 71.076798 
L 285.588608 71.665037 
L 285.810272 71.076798 
L 286.2536 71.076798 
L 286.475264 71.665037 
L 286.918593 71.665037 
L 287.140257 71.076798 
L 288.026914 71.076798 
L 288.248578 70.488559 
L 288.470242 70.488559 
L 288.691906 71.076798 
L 290.686883 71.076798 
L 290.908548 70.488559 
L 291.795204 70.488559 
L 292.016868 71.076798 
L 293.346853 71.076798 
L 293.568517 71.665037 
L 293.790182 71.665037 
L 294.011846 72.253276 
L 294.676838 72.253276 
L 294.898502 71.665037 
L 295.785159 71.665037 
L 296.006823 71.076798 
L 296.228487 71.076798 
L 296.450151 70.488559 
L 296.89348 70.488559 
L 297.115144 69.900321 
L 297.780136 69.900321 
L 298.0018 69.312082 
L 298.445129 69.312082 
L 298.666793 68.723843 
L 299.55345 68.723843 
L 299.775114 68.135604 
L 299.996778 68.135604 
L 300.218442 67.547365 
L 300.440106 68.135604 
L 300.66177 67.547365 
L 301.326763 67.547365 
L 301.548427 66.959127 
L 301.770091 66.959127 
L 301.991755 66.370888 
L 303.543404 66.370888 
L 303.765068 65.782649 
L 303.986733 65.782649 
L 304.208397 65.19441 
L 304.651725 65.19441 
L 304.873389 64.606171 
L 305.316718 64.606171 
L 305.538382 64.017932 
L 306.868367 64.017932 
L 307.090031 63.429694 
L 307.533359 63.429694 
L 307.755023 62.841455 
L 308.420016 62.841455 
L 308.64168 63.429694 
L 308.863344 63.429694 
L 309.085008 62.841455 
L 309.750001 62.841455 
L 309.971665 63.429694 
L 310.414993 62.253216 
L 313.296627 62.253216 
L 313.518291 61.664977 
L 313.739955 62.253216 
L 313.96162 62.253216 
L 314.183284 61.664977 
L 315.734933 61.664977 
L 315.956597 62.253216 
L 316.178261 62.253216 
L 316.399925 62.841455 
L 316.621589 62.253216 
L 316.843254 62.841455 
L 317.286582 62.841455 
L 317.508246 63.429694 
L 318.173238 63.429694 
L 318.394903 64.017932 
L 318.838231 64.017932 
L 319.059895 63.429694 
L 319.281559 63.429694 
L 319.503223 64.017932 
L 319.724888 64.017932 
L 319.946552 64.606171 
L 320.168216 64.606171 
L 320.38988 65.19441 
L 321.276537 65.19441 
L 321.498201 65.782649 
L 321.719865 65.19441 
L 321.941529 65.19441 
L 322.163193 65.782649 
L 322.384857 65.782649 
L 322.606522 65.19441 
L 322.828186 65.782649 
L 323.04985 65.782649 
L 323.271514 66.370888 
L 323.493178 65.782649 
L 324.601499 65.782649 
L 324.823163 66.370888 
L 325.044827 66.370888 
L 325.266491 65.782649 
L 326.153148 65.782649 
L 326.374812 66.370888 
L 326.81814 66.370888 
L 327.039805 65.782649 
L 327.704797 65.782649 
L 327.926461 66.370888 
L 331.251424 66.370888 
L 331.473088 66.959127 
L 331.694752 66.959127 
L 331.916416 67.547365 
L 332.13808 66.959127 
L 332.581408 66.959127 
L 332.803073 67.547365 
L 333.468065 67.547365 
L 333.689729 68.135604 
L 333.911393 67.547365 
L 334.133058 67.547365 
L 334.354722 68.135604 
L 335.241378 68.135604 
L 335.463042 68.723843 
L 337.236356 68.723843 
L 337.45802 69.312082 
L 338.566341 69.312082 
L 338.788005 69.900321 
L 339.009669 69.900321 
L 339.231333 70.488559 
L 339.674661 70.488559 
L 339.896326 71.076798 
L 340.561318 71.076798 
L 340.782982 71.665037 
L 341.004646 71.665037 
L 341.447975 72.841515 
L 341.891303 72.841515 
L 342.112967 73.429753 
L 342.556295 73.429753 
L 342.77796 74.017992 
L 342.999624 74.017992 
L 343.221288 74.606231 
L 343.442952 74.606231 
L 343.664616 75.19447 
L 344.329609 75.19447 
L 344.551273 75.782709 
L 344.994601 75.782709 
L 345.881258 78.135664 
L 346.102922 78.135664 
L 346.324586 78.723903 
L 346.767914 78.723903 
L 346.989578 79.312141 
L 347.211243 79.312141 
L 347.432907 79.90038 
L 348.097899 79.90038 
L 348.319563 80.488619 
L 348.762892 80.488619 
L 348.984556 81.076858 
L 349.871212 81.076858 
L 350.092877 81.665097 
L 352.974511 81.665097 
L 353.196175 78.723903 
L 353.417839 78.723903 
L 353.639503 79.312141 
L 353.861167 79.312141 
L 354.304496 80.488619 
L 354.52616 80.488619 
L 354.747824 81.076858 
L 354.969488 81.076858 
L 355.191152 81.665097 
L 356.077809 81.665097 
L 356.299473 82.253335 
L 356.742801 82.253335 
L 356.964465 82.841574 
L 357.407794 82.841574 
L 357.629458 83.429813 
L 358.072786 83.429813 
L 358.29445 84.018052 
L 358.737779 84.018052 
L 358.959443 84.606291 
L 360.067763 84.606291 
L 360.289428 84.018052 
L 360.511092 84.606291 
L 360.732756 84.606291 
L 360.95442 85.19453 
L 361.619413 85.19453 
L 361.841077 85.782768 
L 362.949397 85.782768 
L 363.171062 86.371007 
L 363.392726 86.371007 
L 363.61439 86.959246 
L 364.722711 86.959246 
L 364.944375 87.547485 
L 365.831031 87.547485 
L 366.052696 88.135724 
L 366.27436 88.135724 
L 366.496024 88.723962 
L 366.717688 88.135724 
L 367.161016 89.312201 
L 367.604345 89.312201 
L 367.826009 89.90044 
L 368.047673 89.90044 
L 368.269337 90.488679 
L 368.491001 90.488679 
L 368.93433 91.665156 
L 369.377658 91.665156 
L 369.599322 92.253395 
L 370.04265 92.253395 
L 370.264315 92.841634 
L 370.707643 92.841634 
L 370.929307 93.429873 
L 371.372635 93.429873 
L 371.594299 94.018112 
L 371.815964 94.018112 
L 372.259292 95.194589 
L 372.480956 95.194589 
L 372.70262 95.782828 
L 375.140926 95.782828 
L 375.36259 96.371067 
L 375.805918 96.371067 
L 376.027583 95.782828 
L 376.249247 95.782828 
L 376.470911 96.371067 
L 376.692575 95.782828 
L 376.914239 95.782828 
L 377.135903 95.194589 
L 377.800896 95.194589 
L 378.02256 95.782828 
L 380.017537 95.782828 
L 380.239201 95.194589 
L 381.790851 95.194589 
L 382.012515 95.782828 
L 382.234179 95.194589 
L 383.120835 95.194589 
L 383.3425 95.782828 
L 384.229156 95.782828 
L 384.45082 95.194589 
L 385.115813 95.194589 
L 385.337477 94.60635 
L 387.332454 94.60635 
L 387.554119 95.194589 
L 388.219111 95.194589 
L 388.440775 94.60635 
L 388.662439 95.194589 
L 388.884103 94.60635 
L 389.992424 94.60635 
L 390.214088 94.018112 
L 390.879081 94.018112 
L 391.100745 93.429873 
L 391.322409 94.018112 
L 392.652394 94.018112 
L 392.874058 94.60635 
L 393.095722 94.018112 
L 393.317387 94.018112 
L 393.539051 94.60635 
L 395.312364 94.60635 
L 395.534028 94.018112 
L 396.864013 94.018112 
L 397.085677 94.60635 
L 400.632304 94.60635 
L 400.853968 94.018112 
L 401.075632 94.018112 
L 401.297296 93.429873 
L 402.183953 93.429873 
L 402.627281 92.253395 
L 402.848945 92.841634 
L 403.070609 92.253395 
L 403.513938 92.253395 
L 403.735602 91.665156 
L 403.957266 91.665156 
L 404.17893 91.076918 
L 404.622258 91.076918 
L 405.065587 89.90044 
L 405.508915 89.90044 
L 405.730579 89.312201 
L 406.173907 89.312201 
L 406.395572 88.723962 
L 406.617236 88.723962 
L 406.8389 88.135724 
L 407.282228 88.135724 
L 407.503892 87.547485 
L 407.947221 87.547485 
L 408.168885 86.959246 
L 408.612213 86.959246 
L 408.833877 86.371007 
L 409.055541 86.371007 
L 409.277206 85.782768 
L 409.720534 85.782768 
L 409.942198 85.19453 
L 410.163862 85.19453 
L 410.385526 84.606291 
L 410.828855 84.606291 
L 411.050519 84.018052 
L 411.272183 84.018052 
L 411.493847 83.429813 
L 411.937175 83.429813 
L 412.15884 82.841574 
L 412.823832 82.841574 
L 413.045496 82.253335 
L 413.26716 82.253335 
L 413.488825 82.841574 
L 413.710489 82.841574 
L 413.932153 82.253335 
L 414.153817 82.253335 
L 414.375481 81.665097 
L 414.818809 81.665097 
L 415.040474 81.076858 
L 415.262138 81.076858 
L 415.483802 80.488619 
L 416.370459 80.488619 
L 416.592123 79.90038 
L 416.813787 79.90038 
L 417.035451 79.312141 
L 418.365436 79.312141 
L 418.5871 78.723903 
L 420.138749 78.723903 
L 420.360413 78.135664 
L 421.690398 78.135664 
L 421.912062 77.547425 
L 422.798719 77.547425 
L 423.020383 76.959186 
L 423.463711 76.959186 
L 423.685376 76.370947 
L 426.345345 76.370947 
L 426.56701 75.782709 
L 427.453666 75.782709 
L 427.67533 75.19447 
L 428.118659 75.19447 
L 428.340323 74.606231 
L 428.783651 74.606231 
L 429.226979 73.429753 
L 429.670308 73.429753 
L 429.891972 72.841515 
L 430.113636 73.429753 
L 430.3353 72.841515 
L 430.556964 72.841515 
L 431.000293 71.665037 
L 431.221957 71.665037 
L 431.443621 71.076798 
L 431.665285 71.076798 
L 431.886949 70.488559 
L 432.330278 70.488559 
L 432.551942 69.900321 
L 432.99527 69.900321 
L 433.438598 68.723843 
L 434.103591 68.723843 
L 434.325255 68.135604 
L 434.546919 68.135604 
L 434.990247 66.959127 
L 436.098568 66.959127 
L 436.320232 66.370888 
L 436.541897 66.370888 
L 436.763561 65.782649 
L 437.206889 65.782649 
L 437.428553 65.19441 
L 437.871881 65.19441 
L 438.093546 64.606171 
L 438.536874 64.606171 
L 438.758538 64.017932 
L 438.980202 64.017932 
L 439.201866 63.429694 
L 439.866859 63.429694 
L 440.088523 62.841455 
L 440.531851 62.841455 
L 440.753515 62.253216 
L 441.196844 62.253216 
L 441.640172 61.076738 
L 442.305165 61.076738 
L 442.526829 60.4885 
L 443.413485 60.4885 
L 443.635149 59.900261 
L 444.300142 59.900261 
L 444.521806 59.312022 
L 444.74347 59.312022 
L 444.965134 59.900261 
L 445.186799 59.312022 
L 445.630127 59.312022 
L 445.851791 58.723783 
L 446.295119 58.723783 
L 446.516783 58.135544 
L 447.181776 58.135544 
L 447.40344 57.547306 
L 447.625104 58.135544 
L 448.511761 58.135544 
L 448.733425 57.547306 
L 449.398417 57.547306 
L 449.620082 56.959067 
L 449.841746 57.547306 
L 450.285074 57.547306 
L 450.506738 58.135544 
L 450.728402 58.135544 
L 450.950067 57.547306 
L 451.836723 57.547306 
L 452.058387 58.135544 
L 452.280051 57.547306 
L 453.388372 57.547306 
L 453.610036 56.959067 
L 453.831701 57.547306 
L 454.275029 57.547306 
L 454.496693 56.959067 
L 455.38335 56.959067 
L 455.605014 56.370828 
L 456.048342 56.370828 
L 456.270006 55.782589 
L 456.49167 56.370828 
L 456.713335 55.782589 
L 458.043319 55.782589 
L 458.264984 55.19435 
L 458.708312 55.19435 
L 458.929976 54.606112 
L 459.15164 54.606112 
L 459.373304 54.017873 
L 459.594969 54.606112 
L 459.816633 54.017873 
L 460.038297 54.017873 
L 460.259961 54.606112 
L 460.481625 54.017873 
L 460.924953 54.017873 
L 461.146618 53.429634 
L 461.368282 54.017873 
L 461.589946 53.429634 
L 461.81161 53.429634 
L 462.033274 52.841395 
L 462.919931 52.841395 
L 463.141595 52.253156 
L 463.806587 52.253156 
L 464.028252 52.841395 
L 464.249916 52.253156 
L 466.688221 52.253156 
L 466.909886 51.664918 
L 467.13155 51.664918 
L 467.353214 52.253156 
L 467.574878 51.664918 
L 469.79152 51.664918 
L 470.013184 51.076679 
L 470.234848 51.664918 
L 471.121505 51.664918 
L 471.343169 51.076679 
L 471.564833 51.664918 
L 471.786497 51.076679 
L 472.008161 51.076679 
L 472.229825 51.664918 
L 472.451489 51.076679 
L 472.673154 51.076679 
L 472.894818 51.664918 
L 473.338146 51.664918 
L 473.55981 52.253156 
L 473.781474 52.253156 
L 474.003139 52.841395 
L 474.446467 52.841395 
L 474.668131 52.253156 
L 474.889795 52.253156 
L 475.111459 52.841395 
L 475.776452 52.841395 
L 475.998116 53.429634 
L 477.106437 53.429634 
L 477.328101 54.017873 
L 478.436422 54.017873 
L 478.658086 54.606112 
L 480.874727 54.606112 
L 481.096391 54.017873 
L 481.318056 54.017873 
L 481.53972 54.606112 
L 481.761384 54.017873 
L 481.983048 54.606112 
L 482.204712 54.017873 
L 483.091369 54.017873 
L 483.313033 53.429634 
L 483.534697 53.429634 
L 483.756361 54.017873 
L 483.978025 53.429634 
L 484.19969 54.017873 
L 484.643018 54.017873 
L 484.864682 53.429634 
L 485.086346 54.017873 
L 485.30801 53.429634 
L 485.529675 54.017873 
L 485.973003 54.017873 
L 486.194667 53.429634 
L 489.962958 53.429634 
L 490.184622 52.841395 
L 490.406286 52.841395 
L 490.62795 53.429634 
L 490.849614 52.841395 
L 491.957935 52.841395 
L 492.179599 53.429634 
L 492.844592 53.429634 
L 493.066256 52.841395 
L 493.731248 52.841395 
L 493.952912 53.429634 
L 494.174577 53.429634 
L 494.396241 54.017873 
L 497.499539 54.017873 
L 497.721203 54.606112 
L 498.164531 54.606112 
L 498.386195 55.19435 
L 500.159509 55.19435 
L 500.381173 55.782589 
L 500.602837 55.782589 
L 500.824501 56.370828 
L 501.711158 56.370828 
L 501.932822 56.959067 
L 502.819479 56.959067 
L 503.041143 57.547306 
L 503.484471 57.547306 
L 503.706135 58.135544 
L 504.149463 58.135544 
L 504.371128 58.723783 
L 504.592792 58.723783 
L 504.814456 59.312022 
L 505.701113 59.312022 
L 505.922777 59.900261 
L 506.144441 59.900261 
L 506.366105 60.4885 
L 506.587769 60.4885 
L 506.809433 59.900261 
L 509.026075 59.900261 
L 509.247739 59.312022 
L 509.912731 59.312022 
L 510.134396 59.900261 
L 510.35606 59.900261 
L 510.577724 59.312022 
L 510.799388 59.312022 
L 511.021052 59.900261 
L 514.346015 59.900261 
L 514.567679 59.312022 
L 515.675999 59.312022 
L 515.897664 59.900261 
L 516.119328 59.312022 
L 516.562656 59.312022 
L 516.78432 59.900261 
L 520.330947 59.900261 
L 520.552611 60.4885 
L 520.774275 59.900261 
L 520.995939 60.4885 
L 521.439267 60.4885 
L 521.660932 61.076738 
L 523.434245 61.076738 
L 523.655909 61.664977 
L 525.207558 61.664977 
L 525.429222 62.253216 
L 526.537543 62.253216 
L 526.759207 62.841455 
L 527.202535 62.841455 
L 527.4242 63.429694 
L 528.53252 63.429694 
L 528.754185 64.017932 
L 529.197513 64.017932 
L 529.419177 64.606171 
L 529.862505 64.606171 
L 530.084169 65.19441 
L 530.970826 65.19441 
L 531.19249 65.782649 
L 531.635819 65.782649 
L 531.857483 66.370888 
L 533.187468 66.370888 
L 533.409132 65.782649 
L 534.517453 65.782649 
L 534.739117 65.19441 
L 534.960781 65.782649 
L 535.182445 65.19441 
L 535.404109 65.19441 
L 535.625773 65.782649 
L 535.847437 65.19441 
L 536.734094 65.19441 
L 536.955758 65.782649 
L 538.064079 65.782649 
L 538.285743 65.19441 
L 538.950736 65.19441 
L 539.1724 65.782649 
L 539.394064 65.19441 
L 539.615728 65.782649 
L 540.724049 65.782649 
L 540.945713 65.19441 
L 541.167377 65.782649 
L 541.610705 65.782649 
L 541.83237 65.19441 
L 542.054034 65.19441 
L 542.275698 65.782649 
L 544.270675 65.782649 
L 544.492339 66.370888 
L 544.714004 65.782649 
L 544.935668 65.782649 
L 545.157332 66.370888 
L 545.822324 66.370888 
L 546.043989 65.782649 
L 546.265653 66.370888 
L 546.487317 65.782649 
L 546.708981 65.782649 
L 546.930645 66.370888 
L 547.152309 65.782649 
L 547.595638 65.782649 
L 547.817302 66.370888 
L 548.703958 66.370888 
L 548.925623 66.959127 
L 552.472249 66.959127 
L 552.693913 67.547365 
L 553.137241 67.547365 
L 553.358906 68.135604 
L 554.023898 68.135604 
L 554.245562 68.723843 
L 554.910555 68.723843 
L 555.132219 69.312082 
L 555.353883 68.723843 
L 555.575547 69.312082 
L 556.24054 69.312082 
L 556.462204 69.900321 
L 559.122174 69.900321 
L 559.343838 69.312082 
L 559.565502 69.312082 
L 559.787166 69.900321 
L 560.452159 69.900321 
L 560.673823 69.312082 
L 562.890464 69.312082 
L 563.112128 68.723843 
L 563.777121 68.723843 
L 563.998785 68.135604 
L 564.442113 68.135604 
L 564.663777 68.723843 
L 564.885442 68.135604 
L 565.107106 68.135604 
L 565.32877 68.723843 
L 566.880419 68.723843 
L 567.102083 68.135604 
L 567.323747 68.135604 
L 567.545411 67.547365 
L 569.762053 67.547365 
L 569.983717 66.959127 
L 570.427045 66.959127 
L 570.64871 67.547365 
L 571.75703 67.547365 
L 571.978695 66.959127 
L 572.200359 67.547365 
L 573.973672 67.547365 
L 574.195336 66.959127 
L 574.417 66.959127 
L 574.638664 67.547365 
L 578.406955 67.547365 
L 578.628619 68.135604 
L 579.071947 68.135604 
L 579.293612 68.723843 
L 580.180268 68.723843 
L 580.401932 69.312082 
L 580.623597 68.723843 
L 580.845261 69.312082 
L 581.731917 69.312082 
L 581.953581 69.900321 
L 582.39691 69.900321 
L 582.618574 70.488559 
L 583.283566 70.488559 
L 583.505231 71.076798 
L 584.391887 71.076798 
L 584.613551 71.665037 
L 585.05688 71.665037 
L 585.278544 71.076798 
L 585.721872 71.076798 
L 585.943536 70.488559 
L 586.386865 70.488559 
L 586.608529 69.900321 
L 587.051857 69.900321 
L 587.273521 70.488559 
L 588.603506 70.488559 
L 588.82517 69.900321 
L 589.046834 70.488559 
L 589.490163 69.312082 
L 592.371797 69.312082 
L 592.593461 68.723843 
L 592.815125 68.723843 
L 593.036789 68.135604 
L 594.588438 68.135604 
L 594.810102 67.547365 
L 595.475095 67.547365 
L 595.696759 68.135604 
L 595.918423 67.547365 
L 596.583416 67.547365 
L 596.80508 66.959127 
L 597.691736 66.959127 
L 597.913401 67.547365 
L 598.135065 66.959127 
L 604.341661 66.959127 
L 604.563325 67.547365 
L 605.006653 67.547365 
L 605.228318 66.959127 
L 605.449982 66.959127 
L 605.671646 67.547365 
L 606.114974 67.547365 
L 606.336638 68.135604 
L 606.558303 67.547365 
L 606.779967 67.547365 
L 607.001631 68.135604 
L 608.55328 68.135604 
L 608.774944 68.723843 
L 609.883265 68.723843 
L 610.104929 69.312082 
L 610.326593 68.723843 
L 610.548257 68.723843 
L 610.769921 69.312082 
L 611.21325 69.312082 
L 611.434914 69.900321 
L 612.986563 69.900321 
L 613.208227 69.312082 
L 613.87322 69.312082 
L 614.316548 68.135604 
L 617.64151 68.135604 
L 617.863174 67.547365 
L 618.306503 67.547365 
L 618.528167 68.135604 
L 618.749831 67.547365 
L 619.193159 67.547365 
L 619.414823 66.959127 
L 619.636488 67.547365 
L 620.523144 67.547365 
L 620.744808 68.135604 
L 620.966473 67.547365 
L 623.626442 67.547365 
L 623.848107 66.959127 
L 626.064748 66.959127 
L 626.286412 66.370888 
L 626.729741 66.370888 
L 626.951405 66.959127 
L 627.394733 66.959127 
L 627.616397 66.370888 
L 628.059725 66.370888 
L 628.28139 66.959127 
L 630.054703 66.959127 
L 630.276367 67.547365 
L 630.498031 66.959127 
L 630.719695 66.959127 
L 630.941359 67.547365 
L 634.266322 67.547365 
L 634.487986 68.135604 
L 635.152978 68.135604 
L 635.374643 68.723843 
L 635.596307 68.723843 
L 635.817971 69.312082 
L 636.039635 68.723843 
L 636.704627 68.723843 
L 636.926292 69.312082 
L 639.586261 69.312082 
L 639.807926 68.723843 
L 640.02959 68.723843 
L 640.251254 68.135604 
L 642.246231 68.135604 
L 642.467895 67.547365 
L 642.68956 67.547365 
L 642.911224 66.959127 
L 643.354552 66.959127 
L 643.576216 66.370888 
L 643.79788 66.959127 
L 645.571194 66.959127 
L 645.792858 66.370888 
L 648.896156 66.370888 
L 649.11782 65.782649 
L 649.339484 66.370888 
L 649.561148 66.370888 
L 649.782812 65.782649 
L 650.004477 65.782649 
L 650.226141 65.19441 
L 652.221118 65.19441 
L 652.442782 64.606171 
L 652.664446 65.19441 
L 652.886111 64.606171 
L 653.107775 65.19441 
L 653.772767 65.19441 
L 653.994431 65.782649 
L 654.659424 65.782649 
L 654.881088 66.370888 
L 655.102752 66.370888 
L 655.324416 65.782649 
L 655.989409 65.782649 
L 656.211073 66.370888 
L 656.432737 65.782649 
L 656.876065 65.782649 
L 657.09773 66.370888 
L 659.536035 66.370888 
L 659.757699 67.547365 
L 659.979364 66.959127 
L 660.201028 66.959127 
L 660.422692 67.547365 
L 660.86602 67.547365 
L 661.087684 68.135604 
L 661.531013 68.135604 
L 661.752677 68.723843 
L 661.974341 68.135604 
L 662.417669 68.135604 
L 662.639333 68.723843 
L 663.304326 68.723843 
L 663.52599 68.135604 
L 663.969318 68.135604 
L 664.190982 67.547365 
L 664.412647 68.135604 
L 665.520967 68.135604 
L 665.742632 67.547365 
L 666.18596 67.547365 
L 666.407624 68.135604 
L 666.629288 68.135604 
L 666.850952 66.959127 
L 670.619243 66.959127 
L 670.840907 66.370888 
L 671.062571 66.959127 
L 671.5059 66.959127 
L 671.727564 66.370888 
L 671.949228 66.370888 
L 672.170892 66.959127 
L 673.057549 66.959127 
L 673.279213 66.370888 
L 673.500877 66.959127 
L 673.722541 66.959127 
L 673.944205 66.370888 
L 674.165869 66.959127 
L 674.387534 66.959127 
L 674.609198 66.370888 
L 675.27419 66.370888 
L 675.495854 65.782649 
L 676.160847 65.782649 
L 676.382511 66.370888 
L 677.269168 66.370888 
L 677.490832 65.782649 
L 679.707473 65.782649 
L 679.929137 66.370888 
L 680.150802 65.782649 
L 680.372466 65.782649 
L 680.815794 66.959127 
L 684.140756 66.959127 
L 684.36242 67.547365 
L 685.249077 67.547365 
L 685.470741 68.135604 
L 687.244054 68.135604 
L 687.465719 68.723843 
L 687.909047 68.723843 
L 688.130711 69.312082 
L 689.68236 69.312082 
L 689.904024 69.900321 
L 691.455673 69.900321 
L 691.677338 69.312082 
L 693.007322 69.312082 
L 693.228987 68.723843 
L 693.893979 68.723843 
L 694.115643 69.312082 
L 694.780636 69.312082 
L 695.0023 68.723843 
L 695.223964 69.312082 
L 697.440606 69.312082 
L 697.66227 69.900321 
L 697.883934 69.312082 
L 698.105598 69.900321 
L 698.327262 69.312082 
L 698.548926 69.312082 
L 698.77059 69.900321 
L 700.32224 69.900321 
L 700.543904 69.312082 
L 700.765568 69.900321 
L 701.873889 69.900321 
L 702.095553 70.488559 
L 702.760545 70.488559 
L 702.982209 71.076798 
L 703.647202 71.076798 
L 703.868866 71.665037 
L 706.085508 71.665037 
L 706.307172 72.253276 
L 706.528836 72.253276 
L 706.7505 72.841515 
L 706.972164 72.841515 
L 707.193828 73.429753 
L 707.637157 73.429753 
L 707.858821 74.017992 
L 708.523813 74.017992 
L 708.745477 74.606231 
L 708.967142 74.017992 
L 709.188806 74.017992 
L 709.41047 74.606231 
L 710.075462 74.606231 
L 710.297126 75.19447 
L 711.405447 75.19447 
L 711.627111 75.782709 
L 712.735432 75.782709 
L 712.957096 75.19447 
L 714.065417 75.19447 
L 714.287081 74.606231 
L 714.508745 74.606231 
L 714.73041 75.19447 
L 715.173738 75.19447 
L 715.395402 74.606231 
L 716.282059 74.606231 
L 716.503723 74.017992 
L 716.725387 74.606231 
L 717.833708 74.606231 
L 718.055372 74.017992 
L 718.942028 74.017992 
L 719.163693 73.429753 
L 719.607021 73.429753 
L 719.828685 74.017992 
L 720.937006 74.017992 
L 721.15867 73.429753 
L 722.045327 73.429753 
L 722.266991 74.017992 
L 722.488655 74.017992 
L 722.710319 73.429753 
L 724.261968 73.429753 
L 724.483632 74.017992 
L 724.705296 74.017992 
L 725.148625 72.841515 
L 728.030259 72.841515 
L 728.473587 74.017992 
L 730.025236 74.017992 
L 730.2469 74.606231 
L 730.911893 74.606231 
L 731.133557 75.19447 
L 731.355221 75.19447 
L 731.576885 74.606231 
L 731.798549 74.606231 
L 732.020214 75.19447 
L 733.793527 75.19447 
L 734.015191 75.782709 
L 734.236855 75.782709 
L 734.458519 75.19447 
L 734.680183 75.782709 
L 734.901848 75.782709 
L 735.123512 76.370947 
L 737.340153 76.370947 
L 737.561817 76.959186 
L 737.783482 76.370947 
L 738.448474 76.370947 
L 738.670138 75.782709 
L 738.891802 76.370947 
L 740.000123 76.370947 
L 740.221787 75.782709 
L 740.443451 75.782709 
L 740.665116 75.19447 
L 740.88678 75.782709 
L 741.108444 75.782709 
L 741.330108 75.19447 
L 741.551772 75.782709 
L 742.881757 75.782709 
L 743.325085 74.606231 
L 746.650048 74.606231 
L 746.871712 75.19447 
L 747.093376 74.606231 
L 749.531682 74.606231 
L 749.753346 74.017992 
L 749.97501 74.017992 
L 750.196674 74.606231 
L 750.861667 74.606231 
L 751.083331 74.017992 
L 751.304995 74.606231 
L 752.191652 74.606231 
L 752.413316 74.017992 
L 753.078308 74.017992 
L 753.299972 74.606231 
L 755.516614 74.606231 
L 755.738278 75.19447 
L 755.959942 74.606231 
L 756.181606 74.606231 
L 756.40327 75.19447 
L 756.624935 75.19447 
L 756.846599 75.782709 
L 757.289927 75.782709 
L 757.511591 76.370947 
L 758.619912 76.370947 
L 758.841576 75.782709 
L 759.06324 76.370947 
L 759.284904 76.370947 
L 759.506569 75.782709 
L 759.949897 75.782709 
L 759.949897 75.782709 
" clip-path="url(#pc477a1ce80)" style="fill: none; stroke: #1f77b4; stroke-width: 1.1; stroke-linecap: square"/>
   </g>
   <g id="line2d_28">
    <path d="M 94.957436 329.901873 
L 95.622428 329.901873 
L 95.844092 329.313634 
L 96.952413 329.313634 
L 97.174077 328.725395 
L 98.060734 328.725395 
L 98.282398 328.137157 
L 98.94739 328.137157 
L 99.169054 327.548918 
L 99.390719 328.137157 
L 100.499039 328.137157 
L 100.720704 327.548918 
L 102.050688 327.548918 
L 102.272353 326.960679 
L 103.824002 326.960679 
L 104.045666 326.37244 
L 105.818979 326.37244 
L 106.040643 325.784201 
L 106.483972 325.784201 
L 106.705636 325.195963 
L 106.9273 325.784201 
L 107.148964 325.195963 
L 108.257285 325.195963 
L 108.478949 324.607724 
L 110.473926 324.607724 
L 110.69559 324.019485 
L 111.360583 324.019485 
L 111.582247 323.431246 
L 112.468904 323.431246 
L 112.690568 322.843007 
L 114.242217 322.843007 
L 114.463881 322.254768 
L 114.685545 322.843007 
L 114.907209 322.843007 
L 115.128874 322.254768 
L 116.01553 322.254768 
L 116.237194 321.66653 
L 116.680523 321.66653 
L 116.902187 321.078291 
L 117.123851 321.078291 
L 117.345515 320.490052 
L 118.6755 320.490052 
L 118.897164 319.901813 
L 119.340492 319.901813 
L 119.562157 319.313574 
L 119.783821 319.313574 
L 120.005485 318.725336 
L 120.227149 318.725336 
L 120.448813 318.137097 
L 121.557134 318.137097 
L 121.778798 317.548858 
L 122.000462 318.137097 
L 122.222126 318.137097 
L 122.443791 317.548858 
L 122.665455 317.548858 
L 122.887119 318.137097 
L 123.108783 317.548858 
L 123.330447 318.137097 
L 123.552111 317.548858 
L 123.99544 317.548858 
L 124.217104 316.960619 
L 124.438768 317.548858 
L 124.882096 317.548858 
L 125.10376 316.960619 
L 125.768753 316.960619 
L 125.990417 316.37238 
L 127.542066 316.37238 
L 127.76373 316.960619 
L 127.985394 316.37238 
L 128.428723 316.37238 
L 128.650387 315.784142 
L 128.872051 315.784142 
L 129.093715 315.195903 
L 130.4237 315.195903 
L 130.645364 314.607664 
L 131.975349 314.607664 
L 132.418678 313.431186 
L 132.640342 314.019425 
L 132.862006 314.019425 
L 133.08367 313.431186 
L 134.191991 313.431186 
L 134.413655 312.842948 
L 135.965304 312.842948 
L 136.186968 312.254709 
L 136.408632 312.254709 
L 136.630296 312.842948 
L 138.846938 312.842948 
L 139.068602 312.254709 
L 139.290266 312.842948 
L 139.51193 312.254709 
L 141.285244 312.254709 
L 141.506908 311.66647 
L 142.393564 311.66647 
L 142.615229 311.078231 
L 142.836893 311.66647 
L 144.610206 311.66647 
L 144.83187 311.078231 
L 148.156832 311.078231 
L 148.378497 310.489992 
L 149.043489 310.489992 
L 149.265153 311.078231 
L 149.486817 310.489992 
L 154.141765 310.489992 
L 154.363429 309.901754 
L 154.585093 310.489992 
L 157.466727 310.489992 
L 157.688391 309.901754 
L 157.910055 309.901754 
L 158.131719 310.489992 
L 158.353384 310.489992 
L 158.575048 309.901754 
L 158.796712 309.901754 
L 159.018376 310.489992 
L 159.683368 310.489992 
L 159.905033 309.901754 
L 160.126697 310.489992 
L 161.235018 310.489992 
L 161.456682 309.901754 
L 162.565002 309.901754 
L 162.786667 310.489992 
L 163.451659 310.489992 
L 163.673323 311.078231 
L 164.55998 311.078231 
L 164.781644 311.66647 
L 165.003308 311.078231 
L 165.224972 311.66647 
L 165.446636 311.66647 
L 165.668301 311.078231 
L 165.889965 311.078231 
L 166.111629 311.66647 
L 166.333293 311.078231 
L 166.776621 311.078231 
L 166.998286 311.66647 
L 169.87992 311.66647 
L 170.101584 312.254709 
L 170.323248 312.254709 
L 170.544912 311.66647 
L 171.431569 311.66647 
L 171.653233 312.254709 
L 172.096561 312.254709 
L 172.318225 312.842948 
L 172.539889 312.842948 
L 172.761554 312.254709 
L 174.534867 312.254709 
L 174.756531 312.842948 
L 175.864852 312.842948 
L 176.086516 313.431186 
L 178.081493 313.431186 
L 178.303157 314.019425 
L 178.524822 314.019425 
L 178.746486 313.431186 
L 178.96815 314.019425 
L 179.189814 313.431186 
L 179.633142 313.431186 
L 179.854806 314.019425 
L 180.963127 314.019425 
L 181.184791 314.607664 
L 182.958105 314.607664 
L 183.179769 315.195903 
L 184.066425 315.195903 
L 184.28809 315.784142 
L 185.174746 315.784142 
L 185.39641 316.37238 
L 186.283067 316.37238 
L 186.504731 316.960619 
L 186.726395 316.37238 
L 186.948059 316.37238 
L 187.169724 316.960619 
L 187.391388 316.960619 
L 187.613052 316.37238 
L 187.834716 316.37238 
L 188.05638 316.960619 
L 188.943037 316.960619 
L 189.164701 317.548858 
L 189.608029 317.548858 
L 189.829693 318.137097 
L 191.381342 318.137097 
L 191.603007 318.725336 
L 192.489663 318.725336 
L 192.711327 319.313574 
L 193.37632 319.313574 
L 193.597984 318.725336 
L 193.819648 318.725336 
L 194.041312 319.313574 
L 195.149633 319.313574 
L 195.371297 319.901813 
L 196.257954 319.901813 
L 196.479618 320.490052 
L 197.14461 320.490052 
L 197.366275 321.078291 
L 199.139588 321.078291 
L 199.361252 321.66653 
L 199.582916 321.66653 
L 199.80458 322.254768 
L 200.691237 322.254768 
L 200.912901 322.843007 
L 201.134565 322.843007 
L 201.356229 323.431246 
L 202.907878 323.431246 
L 203.129543 322.843007 
L 203.351207 323.431246 
L 204.237863 323.431246 
L 204.459528 324.019485 
L 205.346184 324.019485 
L 205.567848 324.607724 
L 206.676169 324.607724 
L 206.897833 325.195963 
L 207.119497 325.195963 
L 207.341162 324.607724 
L 208.449482 324.607724 
L 208.671146 325.195963 
L 208.892811 324.607724 
L 209.114475 325.195963 
L 209.779467 325.195963 
L 210.001131 325.784201 
L 210.887788 325.784201 
L 211.109452 326.37244 
L 211.774445 326.37244 
L 211.996109 326.960679 
L 212.217773 326.960679 
L 212.439437 327.548918 
L 214.656079 327.548918 
L 214.877743 328.137157 
L 215.542735 328.137157 
L 215.764399 328.725395 
L 216.87272 328.725395 
L 217.094384 329.313634 
L 217.537713 329.313634 
L 217.759377 328.725395 
L 218.867698 328.725395 
L 219.311026 329.901873 
L 219.976018 329.901873 
L 220.197682 330.490112 
L 220.419347 329.901873 
L 220.641011 330.490112 
L 222.414324 330.490112 
L 222.635988 331.078351 
L 223.079316 331.078351 
L 223.300981 331.666589 
L 224.187637 331.666589 
L 224.409301 332.254828 
L 224.630966 332.254828 
L 224.85263 332.843067 
L 225.074294 332.254828 
L 225.517622 332.254828 
L 225.739286 332.843067 
L 227.069271 332.843067 
L 227.290935 333.431306 
L 227.5126 332.843067 
L 228.842584 332.843067 
L 229.064249 333.431306 
L 229.729241 333.431306 
L 229.950905 334.019545 
L 230.172569 333.431306 
L 230.394234 334.019545 
L 231.059226 334.019545 
L 231.28089 334.607783 
L 231.502554 334.019545 
L 231.724218 334.607783 
L 233.497532 334.607783 
L 233.719196 335.196022 
L 235.049181 335.196022 
L 235.270845 335.784261 
L 239.2608 335.784261 
L 239.482464 336.3725 
L 240.147456 336.3725 
L 240.36912 336.960739 
L 240.590785 336.3725 
L 241.255777 336.3725 
L 241.477441 336.960739 
L 244.137411 336.960739 
L 244.359075 337.548977 
L 244.580739 337.548977 
L 244.802404 336.960739 
L 246.354053 336.960739 
L 246.575717 337.548977 
L 246.797381 336.960739 
L 247.019045 337.548977 
L 248.127366 337.548977 
L 248.34903 336.960739 
L 248.570694 336.960739 
L 248.792358 337.548977 
L 251.452328 337.548977 
L 251.673992 336.960739 
L 251.895656 337.548977 
L 253.890634 337.548977 
L 254.112298 338.137216 
L 254.998955 338.137216 
L 255.220619 337.548977 
L 256.550604 337.548977 
L 256.772268 338.137216 
L 256.993932 337.548977 
L 257.215596 337.548977 
L 257.43726 338.137216 
L 257.658924 338.137216 
L 257.880589 337.548977 
L 258.767245 337.548977 
L 258.988909 338.137216 
L 259.210574 337.548977 
L 259.432238 337.548977 
L 259.653902 338.137216 
L 259.875566 338.137216 
L 260.09723 337.548977 
L 261.870543 337.548977 
L 262.313872 336.3725 
L 262.7572 337.548977 
L 262.978864 336.960739 
L 263.200528 337.548977 
L 263.865521 337.548977 
L 264.087185 336.960739 
L 264.308849 337.548977 
L 264.530513 336.960739 
L 269.18546 336.960739 
L 269.407125 336.3725 
L 269.628789 336.960739 
L 271.180438 336.960739 
L 271.402102 336.3725 
L 271.623766 336.960739 
L 278.052027 336.960739 
L 278.273691 336.3725 
L 278.495355 336.3725 
L 278.717019 335.784261 
L 278.938683 336.3725 
L 279.382012 336.3725 
L 279.603676 335.784261 
L 279.82534 336.3725 
L 280.047004 335.784261 
L 280.711996 335.784261 
L 280.933661 336.3725 
L 281.155325 335.784261 
L 282.48531 335.784261 
L 282.706974 336.3725 
L 282.928638 335.784261 
L 283.150302 335.784261 
L 283.371966 336.3725 
L 283.59363 335.784261 
L 284.701951 335.784261 
L 284.923615 336.3725 
L 285.14528 336.3725 
L 285.366944 335.784261 
L 287.140257 335.784261 
L 287.361921 335.196022 
L 288.026914 335.196022 
L 288.248578 334.607783 
L 289.800227 334.607783 
L 290.021891 335.196022 
L 290.686883 335.196022 
L 290.908548 334.607783 
L 291.57354 334.607783 
L 291.795204 334.019545 
L 292.016868 334.607783 
L 292.238532 334.019545 
L 293.568517 334.019545 
L 293.790182 333.431306 
L 294.011846 334.019545 
L 294.676838 334.019545 
L 294.898502 333.431306 
L 295.563495 333.431306 
L 295.785159 332.843067 
L 296.006823 333.431306 
L 297.336808 333.431306 
L 297.558472 332.843067 
L 298.666793 332.843067 
L 298.888457 333.431306 
L 299.110121 332.843067 
L 299.331785 333.431306 
L 299.775114 332.254828 
L 300.218442 332.254828 
L 300.440106 332.843067 
L 300.883434 332.843067 
L 301.105099 332.254828 
L 301.770091 332.254828 
L 301.991755 331.666589 
L 302.213419 332.254828 
L 302.435084 332.254828 
L 302.656748 331.666589 
L 303.765068 331.666589 
L 303.986733 331.078351 
L 304.651725 331.078351 
L 304.873389 330.490112 
L 305.98171 330.490112 
L 306.203374 329.901873 
L 306.425038 330.490112 
L 306.868367 330.490112 
L 307.090031 329.901873 
L 307.533359 329.901873 
L 307.755023 329.313634 
L 308.198352 329.313634 
L 308.420016 329.901873 
L 309.306672 329.901873 
L 309.528336 329.313634 
L 311.966642 329.313634 
L 312.188306 328.725395 
L 313.074963 328.725395 
L 313.296627 328.137157 
L 314.183284 328.137157 
L 314.404948 327.548918 
L 315.291604 327.548918 
L 315.513269 326.960679 
L 316.399925 326.960679 
L 316.621589 326.37244 
L 316.843254 326.37244 
L 317.064918 326.960679 
L 317.286582 326.37244 
L 318.838231 326.37244 
L 319.059895 325.784201 
L 320.611544 325.784201 
L 320.833208 325.195963 
L 321.054872 325.195963 
L 321.276537 325.784201 
L 321.498201 325.195963 
L 321.941529 325.195963 
L 322.163193 324.607724 
L 323.493178 324.607724 
L 323.714842 324.019485 
L 324.158171 324.019485 
L 324.379835 323.431246 
L 327.261469 323.431246 
L 327.483133 322.843007 
L 329.47811 322.843007 
L 329.699774 322.254768 
L 330.143103 322.254768 
L 330.364767 321.66653 
L 330.586431 321.66653 
L 330.808095 322.254768 
L 331.029759 322.254768 
L 331.251424 321.66653 
L 331.694752 321.66653 
L 331.916416 322.254768 
L 332.13808 321.66653 
L 332.359744 321.66653 
L 332.581408 321.078291 
L 333.911393 321.078291 
L 334.133058 320.490052 
L 336.349699 320.490052 
L 336.571363 319.901813 
L 336.793027 319.901813 
L 337.014692 319.313574 
L 337.679684 319.313574 
L 337.901348 318.725336 
L 341.669639 318.725336 
L 341.891303 318.137097 
L 343.442952 318.137097 
L 343.664616 317.548858 
L 343.88628 317.548858 
L 344.107944 316.960619 
L 344.994601 316.960619 
L 345.216265 316.37238 
L 346.102922 316.37238 
L 346.324586 315.784142 
L 349.649548 315.784142 
L 349.871212 315.195903 
L 350.092877 315.784142 
L 350.314541 315.195903 
L 350.536205 315.784142 
L 350.757869 315.784142 
L 350.979533 315.195903 
L 351.422862 315.195903 
L 351.644526 314.607664 
L 355.191152 314.607664 
L 355.412816 315.195903 
L 355.63448 315.195903 
L 355.856145 314.607664 
L 359.624435 314.607664 
L 359.846099 314.019425 
L 362.062741 314.019425 
L 362.284405 313.431186 
L 362.506069 314.019425 
L 362.949397 314.019425 
L 363.171062 313.431186 
L 365.387703 313.431186 
L 365.609367 312.842948 
L 365.831031 313.431186 
L 366.052696 312.842948 
L 366.717688 312.842948 
L 366.939352 311.078231 
L 367.161016 311.66647 
L 367.382681 311.66647 
L 367.604345 312.254709 
L 368.047673 312.254709 
L 368.269337 312.842948 
L 368.491001 312.842948 
L 368.712665 313.431186 
L 369.377658 313.431186 
L 369.599322 314.019425 
L 370.707643 314.019425 
L 370.929307 314.607664 
L 371.372635 314.607664 
L 371.594299 314.019425 
L 372.037628 314.019425 
L 372.259292 314.607664 
L 372.70262 314.607664 
L 372.924284 314.019425 
L 373.810941 314.019425 
L 374.032605 313.431186 
L 374.475933 313.431186 
L 374.697598 314.019425 
L 376.692575 314.019425 
L 376.914239 313.431186 
L 378.02256 313.431186 
L 378.244224 314.019425 
L 378.465888 314.019425 
L 378.687552 314.607664 
L 378.909217 314.607664 
L 379.352545 313.431186 
L 379.795873 314.607664 
L 380.017537 313.431186 
L 381.790851 313.431186 
L 382.012515 314.019425 
L 382.677507 314.019425 
L 382.899171 313.431186 
L 383.120835 314.019425 
L 384.894149 314.019425 
L 385.115813 313.431186 
L 385.780805 313.431186 
L 386.002469 312.842948 
L 387.11079 312.842948 
L 387.332454 313.431186 
L 388.219111 313.431186 
L 388.440775 314.019425 
L 388.662439 314.019425 
L 388.884103 313.431186 
L 389.992424 313.431186 
L 390.214088 312.842948 
L 390.657417 312.842948 
L 390.879081 313.431186 
L 391.100745 312.842948 
L 391.322409 312.842948 
L 391.544073 313.431186 
L 391.765737 313.431186 
L 391.987402 314.019425 
L 392.209066 314.019425 
L 392.652394 312.842948 
L 392.874058 313.431186 
L 393.095722 312.842948 
L 393.317387 312.842948 
L 393.760715 314.019425 
L 393.982379 314.019425 
L 394.204043 313.431186 
L 394.425707 313.431186 
L 394.647371 312.842948 
L 396.864013 312.842948 
L 397.085677 313.431186 
L 397.307341 312.842948 
L 397.75067 312.842948 
L 397.972334 313.431186 
L 398.193998 312.842948 
L 398.637326 312.842948 
L 398.85899 313.431186 
L 404.622258 313.431186 
L 404.843923 312.842948 
L 406.8389 312.842948 
L 407.060564 312.254709 
L 410.607191 312.254709 
L 410.828855 312.842948 
L 411.050519 312.842948 
L 411.272183 312.254709 
L 412.15884 312.254709 
L 412.380504 311.66647 
L 412.602168 312.254709 
L 417.035451 312.254709 
L 417.257115 311.66647 
L 417.478779 312.254709 
L 418.5871 312.254709 
L 418.808764 312.842948 
L 421.912062 312.842948 
L 422.133727 312.254709 
L 422.355391 312.842948 
L 423.242047 312.842948 
L 423.463711 312.254709 
L 423.685376 312.254709 
L 423.90704 312.842948 
L 425.902017 312.842948 
L 426.123681 312.254709 
L 426.345345 312.254709 
L 426.56701 311.66647 
L 427.010338 311.66647 
L 427.232002 312.254709 
L 427.453666 312.254709 
L 427.67533 312.842948 
L 427.896995 312.842948 
L 428.340323 311.66647 
L 428.561987 312.254709 
L 428.783651 311.66647 
L 429.448644 311.66647 
L 429.891972 312.842948 
L 430.3353 312.842948 
L 430.778629 311.66647 
L 431.000293 312.254709 
L 431.221957 311.66647 
L 433.660263 311.66647 
L 433.881927 312.254709 
L 434.325255 312.254709 
L 434.546919 311.66647 
L 435.211912 311.66647 
L 435.433576 312.254709 
L 436.098568 312.254709 
L 436.320232 311.66647 
L 438.536874 311.66647 
L 438.758538 312.254709 
L 438.980202 311.66647 
L 439.201866 312.254709 
L 440.97518 312.254709 
L 441.196844 311.66647 
L 444.74347 311.66647 
L 444.965134 312.254709 
L 445.630127 312.254709 
L 445.851791 311.66647 
L 446.073455 312.254709 
L 446.295119 312.254709 
L 446.516783 311.66647 
L 446.738448 311.66647 
L 446.960112 312.254709 
L 448.511761 312.254709 
L 448.733425 311.66647 
L 448.955089 311.66647 
L 449.176753 311.078231 
L 449.398417 311.66647 
L 449.620082 311.078231 
L 450.285074 311.078231 
L 450.506738 311.66647 
L 450.728402 311.078231 
L 450.950067 311.66647 
L 456.49167 311.66647 
L 456.713335 312.842948 
L 456.934999 312.842948 
L 457.156663 312.254709 
L 458.264984 312.254709 
L 458.486648 312.842948 
L 458.708312 312.254709 
L 459.816633 312.254709 
L 460.038297 312.842948 
L 460.259961 312.254709 
L 460.481625 312.254709 
L 460.703289 312.842948 
L 460.924953 312.254709 
L 461.146618 312.254709 
L 461.368282 312.842948 
L 461.589946 312.254709 
L 462.254938 312.254709 
L 462.476603 312.842948 
L 462.698267 312.254709 
L 462.919931 312.842948 
L 463.141595 312.254709 
L 463.363259 312.842948 
L 464.693244 312.842948 
L 464.914908 313.431186 
L 465.136572 312.842948 
L 465.358237 312.842948 
L 465.579901 313.431186 
L 468.461535 313.431186 
L 468.683199 312.842948 
L 468.904863 312.842948 
L 469.126527 313.431186 
L 470.89984 313.431186 
L 471.121505 314.019425 
L 471.564833 314.019425 
L 471.786497 313.431186 
L 472.008161 314.019425 
L 472.894818 314.019425 
L 473.116482 314.607664 
L 473.55981 314.607664 
L 473.781474 315.195903 
L 477.549765 315.195903 
L 477.771429 315.784142 
L 483.756361 315.784142 
L 483.978025 316.37238 
L 485.529675 316.37238 
L 485.751339 316.960619 
L 485.973003 316.960619 
L 486.194667 316.37238 
L 486.859659 316.37238 
L 487.081324 316.960619 
L 489.297965 316.960619 
L 489.519629 317.548858 
L 489.741293 316.960619 
L 490.406286 316.960619 
L 490.62795 317.548858 
L 491.736271 317.548858 
L 491.957935 318.137097 
L 494.174577 318.137097 
L 494.396241 318.725336 
L 494.617905 318.725336 
L 494.839569 319.313574 
L 495.061233 318.725336 
L 497.056211 318.725336 
L 497.277875 318.137097 
L 497.721203 318.137097 
L 497.942867 318.725336 
L 500.381173 318.725336 
L 500.602837 319.313574 
L 503.041143 319.313574 
L 503.262807 318.725336 
L 503.484471 319.313574 
L 505.257784 319.313574 
L 505.479448 319.901813 
L 508.361082 319.901813 
L 508.582747 319.313574 
L 508.804411 319.901813 
L 509.247739 319.901813 
L 509.469403 320.490052 
L 510.134396 320.490052 
L 510.35606 319.901813 
L 511.021052 319.901813 
L 511.242716 320.490052 
L 511.464381 319.901813 
L 511.686045 320.490052 
L 511.907709 319.901813 
L 512.129373 320.490052 
L 512.572701 320.490052 
L 512.794365 321.078291 
L 514.346015 321.078291 
L 514.567679 320.490052 
L 514.789343 321.078291 
L 515.011007 320.490052 
L 515.232671 321.078291 
L 520.330947 321.078291 
L 520.552611 321.66653 
L 520.774275 321.078291 
L 520.995939 321.66653 
L 521.439267 321.66653 
L 521.660932 322.254768 
L 521.882596 321.66653 
L 523.655909 321.66653 
L 523.877573 322.254768 
L 524.099237 321.66653 
L 524.320901 321.66653 
L 524.542566 322.254768 
L 524.76423 321.66653 
L 529.862505 321.66653 
L 530.084169 322.254768 
L 530.305834 322.254768 
L 530.527498 321.66653 
L 530.749162 322.254768 
L 530.970826 321.66653 
L 531.635819 321.66653 
L 531.857483 322.254768 
L 534.295788 322.254768 
L 534.517453 321.66653 
L 534.960781 321.66653 
L 535.182445 321.078291 
L 535.404109 321.66653 
L 536.290766 321.66653 
L 536.51243 321.078291 
L 536.734094 321.078291 
L 536.955758 321.66653 
L 537.177422 321.66653 
L 537.399087 322.254768 
L 537.842415 321.078291 
L 538.507407 321.078291 
L 538.729071 321.66653 
L 539.615728 321.66653 
L 539.837392 322.254768 
L 540.059056 322.254768 
L 540.280721 321.66653 
L 540.502385 322.254768 
L 540.724049 322.254768 
L 540.945713 321.66653 
L 541.167377 321.66653 
L 541.389041 322.254768 
L 541.610705 322.254768 
L 542.054034 321.078291 
L 542.275698 322.254768 
L 544.049011 322.254768 
L 544.270675 322.843007 
L 545.822324 322.843007 
L 546.043989 322.254768 
L 547.373973 322.254768 
L 547.595638 321.66653 
L 550.033943 321.66653 
L 550.255607 322.254768 
L 550.477272 321.66653 
L 554.910555 321.66653 
L 555.132219 322.254768 
L 555.353883 321.66653 
L 568.432068 321.66653 
L 568.653732 321.078291 
L 568.875396 321.66653 
L 569.097061 321.66653 
L 569.318725 321.078291 
L 569.762053 321.078291 
L 569.983717 321.66653 
L 570.64871 321.66653 
L 570.870374 321.078291 
L 571.313702 321.078291 
L 571.535366 321.66653 
L 571.978695 321.66653 
L 572.200359 321.078291 
L 572.422023 321.66653 
L 573.530344 321.66653 
L 573.752008 321.078291 
L 575.746985 321.078291 
L 575.968649 320.490052 
L 576.190313 321.078291 
L 576.411978 321.078291 
L 576.633642 320.490052 
L 577.520298 320.490052 
L 577.741963 321.078291 
L 577.963627 321.078291 
L 578.185291 321.66653 
L 578.406955 321.078291 
L 578.628619 321.66653 
L 580.845261 321.66653 
L 581.066925 321.078291 
L 581.288589 321.66653 
L 587.495185 321.66653 
L 587.716849 322.254768 
L 590.155155 322.254768 
L 590.376819 321.66653 
L 590.598483 321.66653 
L 590.820148 322.254768 
L 591.706804 322.254768 
L 591.928468 322.843007 
L 592.150133 322.843007 
L 592.371797 322.254768 
L 592.815125 322.254768 
L 593.036789 322.843007 
L 593.480117 321.66653 
L 593.701782 322.254768 
L 593.923446 321.66653 
L 595.253431 321.66653 
L 595.475095 322.254768 
L 595.918423 322.254768 
L 596.140087 321.66653 
L 597.691736 321.66653 
L 597.913401 322.254768 
L 598.135065 321.66653 
L 599.908378 321.66653 
L 600.351706 322.843007 
L 601.238363 322.843007 
L 601.460027 322.254768 
L 601.681691 322.843007 
L 602.125019 322.843007 
L 602.346684 322.254768 
L 603.011676 322.254768 
L 603.23334 322.843007 
L 604.784989 322.843007 
L 605.006653 323.431246 
L 605.228318 322.843007 
L 605.449982 322.843007 
L 605.671646 323.431246 
L 605.89331 322.843007 
L 608.109952 322.843007 
L 608.331616 323.431246 
L 608.55328 322.843007 
L 608.774944 322.843007 
L 608.996608 323.431246 
L 609.218272 322.843007 
L 609.661601 322.843007 
L 609.883265 322.254768 
L 611.21325 322.254768 
L 611.434914 322.843007 
L 611.656578 322.843007 
L 611.878242 322.254768 
L 612.321571 322.254768 
L 612.764899 323.431246 
L 613.208227 323.431246 
L 613.429891 322.843007 
L 613.651555 323.431246 
L 613.87322 322.843007 
L 614.094884 322.843007 
L 614.316548 322.254768 
L 614.538212 322.843007 
L 614.759876 322.843007 
L 614.98154 322.254768 
L 615.203205 322.843007 
L 615.424869 322.254768 
L 615.646533 322.843007 
L 615.868197 322.843007 
L 616.089861 323.431246 
L 616.754854 323.431246 
L 616.976518 322.843007 
L 618.084839 322.843007 
L 618.306503 323.431246 
L 618.749831 323.431246 
L 618.971495 322.843007 
L 619.193159 323.431246 
L 619.414823 322.843007 
L 619.636488 323.431246 
L 621.188137 323.431246 
L 621.409801 322.843007 
L 621.631465 322.843007 
L 621.853129 323.431246 
L 626.064748 323.431246 
L 626.286412 322.843007 
L 626.508076 322.843007 
L 626.729741 323.431246 
L 626.951405 322.843007 
L 628.059725 322.843007 
L 628.28139 323.431246 
L 628.724718 323.431246 
L 628.946382 322.843007 
L 629.168046 323.431246 
L 629.833039 323.431246 
L 630.054703 322.843007 
L 631.384688 322.843007 
L 631.606352 323.431246 
L 631.828016 322.843007 
L 634.70965 322.843007 
L 634.931314 322.254768 
L 635.152978 322.843007 
L 635.374643 322.843007 
L 635.596307 322.254768 
L 636.926292 322.254768 
L 637.147956 322.843007 
L 637.591284 322.843007 
L 637.812948 322.254768 
L 638.034612 322.843007 
L 638.256277 322.254768 
L 638.477941 322.254768 
L 638.699605 322.843007 
L 639.142933 322.843007 
L 639.364597 322.254768 
L 639.807926 322.254768 
L 640.02959 321.66653 
L 642.024567 321.66653 
L 642.246231 321.078291 
L 647.787835 321.078291 
L 648.009499 320.490052 
L 648.896156 320.490052 
L 649.11782 319.901813 
L 649.339484 320.490052 
L 649.561148 320.490052 
L 649.782812 319.901813 
L 650.004477 319.901813 
L 650.226141 320.490052 
L 651.112797 320.490052 
L 651.334462 321.078291 
L 651.556126 320.490052 
L 652.221118 320.490052 
L 652.442782 319.901813 
L 653.107775 319.901813 
L 653.329439 320.490052 
L 653.551103 319.901813 
L 653.994431 319.901813 
L 654.216096 320.490052 
L 656.432737 320.490052 
L 656.654401 319.901813 
L 656.876065 319.901813 
L 657.09773 320.490052 
L 657.319394 319.901813 
L 658.649379 319.901813 
L 658.871043 319.313574 
L 659.092707 319.901813 
L 660.201028 319.901813 
L 660.422692 320.490052 
L 660.86602 320.490052 
L 661.087684 319.901813 
L 664.634311 319.901813 
L 664.855975 320.490052 
L 665.077639 319.901813 
L 666.18596 319.901813 
L 666.407624 320.490052 
L 666.629288 320.490052 
L 666.850952 319.901813 
L 668.402601 319.901813 
L 668.624266 320.490052 
L 680.59413 320.490052 
L 680.815794 321.078291 
L 681.259122 321.078291 
L 681.480786 320.490052 
L 681.702451 321.078291 
L 682.367443 321.078291 
L 682.589107 320.490052 
L 684.140756 320.490052 
L 684.36242 321.078291 
L 684.584085 320.490052 
L 685.027413 320.490052 
L 685.249077 321.078291 
L 685.470741 320.490052 
L 686.135734 320.490052 
L 686.357398 321.078291 
L 687.02239 321.078291 
L 687.244054 320.490052 
L 687.465719 320.490052 
L 687.909047 321.66653 
L 688.352375 321.66653 
L 688.574039 321.078291 
L 689.239032 321.078291 
L 689.460696 321.66653 
L 690.790681 321.66653 
L 691.012345 322.254768 
L 692.34233 322.254768 
L 692.563994 321.66653 
L 692.785658 322.254768 
L 693.007322 321.66653 
L 693.228987 322.254768 
L 693.893979 322.254768 
L 694.115643 322.843007 
L 695.223964 322.843007 
L 695.445628 323.431246 
L 697.883934 323.431246 
L 698.105598 324.019485 
L 699.878911 324.019485 
L 700.100575 324.607724 
L 700.32224 324.019485 
L 700.765568 324.019485 
L 700.987232 324.607724 
L 701.873889 324.607724 
L 702.095553 325.195963 
L 702.317217 324.607724 
L 702.538881 325.195963 
L 703.425538 325.195963 
L 703.647202 325.784201 
L 705.198851 325.784201 
L 705.420515 325.195963 
L 705.642179 325.784201 
L 706.972164 325.784201 
L 707.193828 326.37244 
L 707.415492 325.784201 
L 707.637157 326.37244 
L 709.188806 326.37244 
L 709.41047 326.960679 
L 710.962119 326.960679 
L 711.183783 327.548918 
L 712.513768 327.548918 
L 712.735432 328.137157 
L 712.957096 327.548918 
L 713.400425 327.548918 
L 713.622089 328.137157 
L 713.843753 328.137157 
L 714.065417 327.548918 
L 714.508745 327.548918 
L 714.73041 328.137157 
L 714.952074 328.137157 
L 715.173738 328.725395 
L 715.83873 328.725395 
L 716.060394 328.137157 
L 716.282059 328.725395 
L 716.947051 328.725395 
L 717.168715 329.313634 
L 719.385357 329.313634 
L 719.607021 329.901873 
L 720.493678 329.901873 
L 720.715342 330.490112 
L 724.261968 330.490112 
L 724.483632 331.078351 
L 726.700274 331.078351 
L 726.921938 330.490112 
L 727.143602 331.078351 
L 727.808595 331.078351 
L 728.030259 331.666589 
L 728.473587 331.666589 
L 728.695251 332.254828 
L 730.911893 332.254828 
L 731.133557 332.843067 
L 731.355221 332.843067 
L 731.576885 332.254828 
L 732.020214 332.254828 
L 732.241878 332.843067 
L 732.685206 332.843067 
L 732.90687 332.254828 
L 733.350198 332.254828 
L 733.571863 332.843067 
L 734.015191 332.843067 
L 734.236855 332.254828 
L 735.56684 332.254828 
L 735.788504 332.843067 
L 736.453497 332.843067 
L 736.675161 332.254828 
L 737.561817 332.254828 
L 737.783482 332.843067 
L 738.005146 332.843067 
L 738.22681 332.254828 
L 738.670138 332.254828 
L 738.891802 332.843067 
L 740.000123 332.843067 
L 740.221787 332.254828 
L 740.443451 332.843067 
L 741.330108 332.843067 
L 741.551772 333.431306 
L 741.773436 332.843067 
L 741.9951 333.431306 
L 744.211742 333.431306 
L 744.433406 334.019545 
L 745.098399 334.019545 
L 745.320063 333.431306 
L 745.763391 333.431306 
L 745.985055 334.019545 
L 746.206719 333.431306 
L 746.428384 334.019545 
L 747.31504 334.019545 
L 747.536704 334.607783 
L 747.758368 334.607783 
L 747.980033 334.019545 
L 748.423361 334.019545 
L 748.645025 333.431306 
L 751.304995 333.431306 
L 751.526659 332.843067 
L 751.748323 332.843067 
L 751.969987 332.254828 
L 758.619912 332.254828 
L 758.841576 331.666589 
L 759.949897 331.666589 
L 759.949897 331.666589 
" clip-path="url(#pc477a1ce80)" style="fill: none; stroke: #ff7f0e; stroke-width: 1.1; stroke-linecap: square"/>
   </g>
   <g id="line2d_29">
    <path clip-path="url(#pc477a1ce80)" style="fill: none; stroke-dasharray: 3.33,1.44; stroke-dashoffset: 0; stroke: #1f77b4; stroke-width: 0.9"/>
   </g>
   <g id="patch_3">
    <path d="M 61.707813 366.84327 
L 61.707813 22.370625 
" style="fill: none; stroke: #000000; stroke-width: 0.8; stroke-linejoin: miter; stroke-linecap: square"/>
   </g>
   <g id="patch_4">
    <path d="M 793.19952 366.84327 
L 793.19952 22.370625 
" style="fill: none; stroke: #000000; stroke-width: 0.8; stroke-linejoin: miter; stroke-linecap: square"/>
   </g>
   <g id="patch_5">
    <path d="M 61.707812 366.84327 
L 793.19952 366.84327 
" style="fill: none; stroke: #000000; stroke-width: 0.8; stroke-linejoin: miter; stroke-linecap: square"/>
   </g>
   <g id="patch_6">
    <path d="M 61.707812 22.370625 
L 793.19952 22.370625 
" style="fill: none; stroke: #000000; stroke-width: 0.8; stroke-linejoin: miter; stroke-linecap: square"/>
   </g>
   <g id="text_16">
    <text style="font-size: 12px; font-family: 'DejaVu Sans', 'Bitstream Vera Sans', 'Computer Modern Sans Serif', 'Lucida Grande', 'Verdana', 'Geneva', 'Lucid', 'Arial', 'Helvetica', 'Avant Garde', sans-serif; text-anchor: middle" x="427.453666" y="16.370625" transform="rotate(-0 427.453666 16.370625)">ptp_multislave_log_4 | PI output | samples 12000..15000</text>
   </g>
   <g id="legend_1">
    <g id="patch_7">
     <path d="M 721.64952 59.726875 
L 786.19952 59.726875 
Q 788.19952 59.726875 788.19952 57.726875 
L 788.19952 29.370625 
Q 788.19952 27.370625 786.19952 27.370625 
L 721.64952 27.370625 
Q 719.64952 27.370625 719.64952 29.370625 
L 719.64952 57.726875 
Q 719.64952 59.726875 721.64952 59.726875 
z
" style="fill: #ffffff; opacity: 0.8; stroke: #cccccc; stroke-linejoin: miter"/>
    </g>
    <g id="line2d_30">
     <path d="M 723.64952 35.469062 
L 733.64952 35.469062 
L 743.64952 35.469062 
" style="fill: none; stroke: #1f77b4; stroke-width: 1.1; stroke-linecap: square"/>
    </g>
    <g id="text_17">
     <text style="font-size: 10px; font-family: 'DejaVu Sans', 'Bitstream Vera Sans', 'Computer Modern Sans Serif', 'Lucida Grande', 'Verdana', 'Geneva', 'Lucid', 'Arial', 'Helvetica', 'Avant Garde', sans-serif; text-anchor: start" x="751.64952" y="38.969062" transform="rotate(-0 751.64952 38.969062)">slave1</text>
    </g>
    <g id="line2d_31">
     <path d="M 723.64952 50.147187 
L 733.64952 50.147187 
L 743.64952 50.147187 
" style="fill: none; stroke: #ff7f0e; stroke-width: 1.1; stroke-linecap: square"/>
    </g>
    <g id="text_18">
     <text style="font-size: 10px; font-family: 'DejaVu Sans', 'Bitstream Vera Sans', 'Computer Modern Sans Serif', 'Lucida Grande', 'Verdana', 'Geneva', 'Lucid', 'Arial', 'Helvetica', 'Avant Garde', sans-serif; text-anchor: start" x="751.64952" y="53.647187" transform="rotate(-0 751.64952 53.647187)">slave2</text>
    </g>
   </g>
  </g>
 </g>
 <defs>
  <clipPath id="pc477a1ce80">
   <rect x="61.707813" y="22.370625" width="731.491707" height="344.472645"/>
  </clipPath>
 </defs>
</svg>
